M48
; DRILL file {KiCad (5.1.2)-2} date 9/19/2019 2:38:39 PM
; FORMAT={2:4/ absolute / inch / suppress leading zeros}
; #@! TF.CreationDate,2019-09-19T14:38:39-05:00
; #@! TF.GenerationSoftware,Kicad,Pcbnew,(5.1.2)-2
FMAT,2
INCH,TZ
T1C0.0157
T2C0.0315
T3C0.0433
T4C0.0512
%
G90
G05
T1
X28772Y-36646
X33465Y-30709
X35039Y-36220
T2
X28740Y-46457
X32740Y-46457
X21260Y-21260
X21260Y-22047
X35630Y-45669
X36614Y-45669
X28740Y-28740
X32740Y-28740
X24016Y-21654
X24016Y-22654
X24016Y-23654
X24016Y-24654
X24016Y-25654
X24016Y-26654
X24016Y-27654
X27016Y-21654
X27016Y-22654
X27016Y-23654
X27016Y-24654
X27016Y-25654
X27016Y-26654
X27016Y-27654
X40157Y-22441
X40945Y-22441
X29134Y-40882
X29134Y-44882
X32283Y-40882
X32283Y-44882
X20866Y-44882
X21654Y-44882
X21260Y-40945
X21260Y-41732
X28740Y-39370
X32740Y-39370
X37008Y-40157
X37008Y-41157
X37008Y-42157
X37008Y-43157
X40008Y-40157
X40008Y-41157
X40008Y-42157
X40008Y-43157
X20866Y-25197
X21654Y-25197
X29134Y-23228
X29134Y-27228
X40126Y-46063
X41126Y-46063
X42126Y-46063
X29614Y-32283
X29614Y-35283
X30614Y-32283
X30614Y-35283
X31614Y-32283
X31614Y-35283
X32614Y-32283
X32614Y-35283
X33614Y-32283
X33614Y-35283
X34614Y-32283
X34614Y-35283
X35614Y-32283
X35614Y-35283
X36614Y-32283
X36614Y-35283
X35433Y-25591
X36417Y-25591
X34646Y-39764
X34646Y-41732
X37795Y-25591
X38780Y-25591
X36024Y-37795
X37008Y-37795
X24016Y-39764
X24016Y-40764
X24016Y-41764
X24016Y-42764
X24016Y-43764
X24016Y-44764
X24016Y-45764
X27016Y-39764
X27016Y-40764
X27016Y-41764
X27016Y-42764
X27016Y-43764
X27016Y-44764
X27016Y-45764
X17520Y-40551
X18504Y-40551
X17520Y-26772
X18504Y-26772
X28740Y-21654
X32740Y-21654
X32283Y-23228
X32283Y-27228
T3
X19685Y-29528
X20685Y-29528
X21685Y-29528
X18110Y-43457
X18110Y-46457
X35827Y-22835
X36827Y-22835
X37827Y-22835
X24409Y-31890
X25409Y-31890
X26409Y-31890
X24378Y-35433
X25378Y-35433
X26378Y-35433
X19654Y-37795
X20654Y-37795
X21654Y-37795
X17717Y-21803
X17717Y-24803
T4
X40709Y-35433
X40709Y-37402
X40709Y-30315
X40709Y-32283
X18898Y-32677
X18898Y-34646
T0
M30
