G04 #@! TF.GenerationSoftware,KiCad,Pcbnew,(5.1.2)-2*
G04 #@! TF.CreationDate,2019-09-19T14:38:40-05:00*
G04 #@! TF.ProjectId,PWM-H-Bridge,50574d2d-482d-4427-9269-6467652e6b69,rev?*
G04 #@! TF.SameCoordinates,Original*
G04 #@! TF.FileFunction,Copper,L2,Bot*
G04 #@! TF.FilePolarity,Positive*
%FSLAX46Y46*%
G04 Gerber Fmt 4.6, Leading zero omitted, Abs format (unit mm)*
G04 Created by KiCad (PCBNEW (5.1.2)-2) date 2019-09-19 14:38:40*
%MOMM*%
%LPD*%
G04 APERTURE LIST*
%ADD10R,2.600000X2.600000*%
%ADD11C,2.600000*%
%ADD12C,1.600000*%
%ADD13R,1.600000X1.600000*%
%ADD14R,2.200000X2.200000*%
%ADD15O,2.200000X2.200000*%
%ADD16O,1.905000X2.000000*%
%ADD17R,1.905000X2.000000*%
%ADD18O,1.600000X1.600000*%
%ADD19C,1.440000*%
%ADD20C,0.800000*%
%ADD21C,0.250000*%
G04 APERTURE END LIST*
D10*
X103400000Y-95000000D03*
D11*
X103400000Y-90000000D03*
X103400000Y-77000000D03*
D10*
X103400000Y-82000000D03*
D12*
X88000000Y-106000000D03*
X88000000Y-101000000D03*
X90500000Y-116000000D03*
X93000000Y-116000000D03*
X94000000Y-96000000D03*
X91500000Y-96000000D03*
X44500000Y-68000000D03*
X47000000Y-68000000D03*
X47000000Y-103000000D03*
X44500000Y-103000000D03*
X92500000Y-65000000D03*
X90000000Y-65000000D03*
X96000000Y-65000000D03*
X98500000Y-65000000D03*
D13*
X104000000Y-57000000D03*
D12*
X102000000Y-57000000D03*
X54000000Y-54000000D03*
D13*
X54000000Y-56000000D03*
D12*
X55000000Y-64000000D03*
D13*
X53000000Y-64000000D03*
X54000000Y-106000000D03*
D12*
X54000000Y-104000000D03*
D13*
X53000000Y-114000000D03*
D12*
X55000000Y-114000000D03*
D14*
X45000000Y-63000000D03*
D15*
X45000000Y-55380000D03*
D14*
X46000000Y-118000000D03*
D15*
X46000000Y-110380000D03*
D10*
X48000000Y-83000000D03*
D11*
X48000000Y-88000000D03*
D16*
X67080000Y-81000000D03*
X64540000Y-81000000D03*
D17*
X62000000Y-81000000D03*
X50000000Y-75000000D03*
D16*
X52540000Y-75000000D03*
X55080000Y-75000000D03*
X61920000Y-90000000D03*
X64460000Y-90000000D03*
D17*
X67000000Y-90000000D03*
D16*
X49920000Y-96000000D03*
X52460000Y-96000000D03*
D17*
X55000000Y-96000000D03*
D18*
X74000000Y-69160000D03*
D12*
X74000000Y-59000000D03*
D18*
X83160000Y-55000000D03*
D12*
X73000000Y-55000000D03*
X74000000Y-114000000D03*
D18*
X74000000Y-103840000D03*
D12*
X73000000Y-118000000D03*
D18*
X83160000Y-118000000D03*
D12*
X73000000Y-73000000D03*
D18*
X83160000Y-73000000D03*
D12*
X82000000Y-59000000D03*
D18*
X82000000Y-69160000D03*
X83160000Y-100000000D03*
D12*
X73000000Y-100000000D03*
D18*
X82000000Y-103840000D03*
D12*
X82000000Y-114000000D03*
D19*
X107000000Y-117000000D03*
X104460000Y-117000000D03*
X101920000Y-117000000D03*
D18*
X68620000Y-55000000D03*
X61000000Y-70240000D03*
X68620000Y-57540000D03*
X61000000Y-67700000D03*
X68620000Y-60080000D03*
X61000000Y-65160000D03*
X68620000Y-62620000D03*
X61000000Y-62620000D03*
X68620000Y-65160000D03*
X61000000Y-60080000D03*
X68620000Y-67700000D03*
X61000000Y-57540000D03*
X68620000Y-70240000D03*
D13*
X61000000Y-55000000D03*
X61000000Y-101000000D03*
D18*
X68620000Y-116240000D03*
X61000000Y-103540000D03*
X68620000Y-113700000D03*
X61000000Y-106080000D03*
X68620000Y-111160000D03*
X61000000Y-108620000D03*
X68620000Y-108620000D03*
X61000000Y-111160000D03*
X68620000Y-106080000D03*
X61000000Y-113700000D03*
X68620000Y-103540000D03*
X61000000Y-116240000D03*
X68620000Y-101000000D03*
D13*
X94000000Y-102000000D03*
D18*
X101620000Y-109620000D03*
X94000000Y-104540000D03*
X101620000Y-107080000D03*
X94000000Y-107080000D03*
X101620000Y-104540000D03*
X94000000Y-109620000D03*
X101620000Y-102000000D03*
D13*
X93000000Y-82000000D03*
D18*
X75220000Y-89620000D03*
X90460000Y-82000000D03*
X77760000Y-89620000D03*
X87920000Y-82000000D03*
X80300000Y-89620000D03*
X85380000Y-82000000D03*
X82840000Y-89620000D03*
X82840000Y-82000000D03*
X85380000Y-89620000D03*
X80300000Y-82000000D03*
X87920000Y-89620000D03*
X77760000Y-82000000D03*
X90460000Y-89620000D03*
X75220000Y-82000000D03*
X93000000Y-89620000D03*
D17*
X91000000Y-58000000D03*
D16*
X93540000Y-58000000D03*
X96080000Y-58000000D03*
D20*
X85000000Y-78000000D03*
X73080000Y-93080000D03*
X89000000Y-92000000D03*
D21*
X96540000Y-107080000D02*
X94000000Y-104540000D01*
X101620000Y-107080000D02*
X96540000Y-107080000D01*
X55080000Y-74952500D02*
X57000000Y-73032500D01*
X55080000Y-75000000D02*
X55080000Y-74952500D01*
X57000000Y-61540000D02*
X61000000Y-57540000D01*
X57000000Y-73032500D02*
X57000000Y-61540000D01*
X75220000Y-75940000D02*
X82000000Y-69160000D01*
X75220000Y-82000000D02*
X75220000Y-75940000D01*
X94000000Y-96000000D02*
X95000000Y-95000000D01*
X95000000Y-68500000D02*
X98500000Y-65000000D01*
X93000000Y-82000000D02*
X95000000Y-82000000D01*
X95000000Y-95000000D02*
X95000000Y-82000000D01*
X95000000Y-82000000D02*
X95000000Y-68500000D01*
X72700000Y-109620000D02*
X68620000Y-113700000D01*
X94000000Y-109620000D02*
X72700000Y-109620000D01*
X68620000Y-67700000D02*
X84700000Y-67700000D01*
X84700000Y-67700000D02*
X85000000Y-68000000D01*
X85000000Y-68000000D02*
X85000000Y-78000000D01*
X65000000Y-83000000D02*
X48000000Y-83000000D01*
X67080000Y-80920000D02*
X65000000Y-83000000D01*
X55000000Y-64000000D02*
X55000000Y-72540000D01*
X53742500Y-73750000D02*
X52540000Y-74952500D01*
X53790000Y-73750000D02*
X53742500Y-73750000D01*
X55000000Y-72540000D02*
X53790000Y-73750000D01*
X52540000Y-74952500D02*
X52540000Y-75000000D01*
X50000000Y-110000000D02*
X54000000Y-106000000D01*
X46000000Y-110000000D02*
X50000000Y-110000000D01*
X61000000Y-60080000D02*
X66000000Y-65080000D01*
X66000000Y-65080000D02*
X66000000Y-71000000D01*
X66000000Y-71000000D02*
X73080000Y-78080000D01*
X73080000Y-78080000D02*
X73080000Y-93080000D01*
X73080000Y-93080000D02*
X70920000Y-93080000D01*
X70920000Y-93080000D02*
X63000000Y-101000000D01*
X63000000Y-104080000D02*
X61000000Y-106080000D01*
X63000000Y-101000000D02*
X63000000Y-104080000D01*
X46000000Y-56000000D02*
X45000000Y-55000000D01*
X54000000Y-56000000D02*
X46000000Y-56000000D01*
X92000000Y-63000000D02*
X90000000Y-65000000D01*
X99000000Y-63000000D02*
X92000000Y-63000000D01*
X100600000Y-64600000D02*
X99000000Y-63000000D01*
X100600000Y-94400000D02*
X100600000Y-64600000D01*
X103400000Y-95000000D02*
X101200000Y-95000000D01*
X101200000Y-95000000D02*
X100600000Y-94400000D01*
X50000000Y-75000000D02*
X50000000Y-63000000D01*
X50000000Y-63000000D02*
X60000000Y-53000000D01*
X81160000Y-53000000D02*
X83160000Y-55000000D01*
X60000000Y-53000000D02*
X81160000Y-53000000D01*
X55000000Y-96047500D02*
X58000000Y-99047500D01*
X55000000Y-96000000D02*
X55000000Y-96047500D01*
X58000000Y-99047500D02*
X58000000Y-117000000D01*
X58000000Y-117000000D02*
X61000000Y-120000000D01*
X81160000Y-120000000D02*
X83160000Y-118000000D01*
X61000000Y-120000000D02*
X81160000Y-120000000D01*
X59950000Y-101000000D02*
X61000000Y-101000000D01*
X59000000Y-101950000D02*
X59950000Y-101000000D01*
X59000000Y-117000000D02*
X59000000Y-101950000D01*
X60000000Y-118000000D02*
X59000000Y-117000000D01*
X73000000Y-118000000D02*
X60000000Y-118000000D01*
X94000000Y-107080000D02*
X94920000Y-108000000D01*
X95460000Y-108000000D02*
X104460000Y-117000000D01*
X94920000Y-108000000D02*
X95460000Y-108000000D01*
X68620000Y-106080000D02*
X81080000Y-106080000D01*
X81080000Y-106080000D02*
X83000000Y-108000000D01*
X93080000Y-108000000D02*
X94000000Y-107080000D01*
X83000000Y-108000000D02*
X93080000Y-108000000D01*
X89399999Y-92399999D02*
X89399999Y-98399999D01*
X89000000Y-92000000D02*
X89399999Y-92399999D01*
X89399999Y-98399999D02*
X91000000Y-100000000D01*
X91000000Y-104080000D02*
X94000000Y-107080000D01*
X91000000Y-100000000D02*
X91000000Y-104080000D01*
X87920000Y-82000000D02*
X87000000Y-81080000D01*
X87000000Y-81080000D02*
X87000000Y-67000000D01*
X85160000Y-65160000D02*
X68620000Y-65160000D01*
X87000000Y-67000000D02*
X85160000Y-65160000D01*
X89200000Y-83260000D02*
X89660001Y-82799999D01*
X68620000Y-111160000D02*
X67000000Y-109540000D01*
X67000000Y-100000000D02*
X70000000Y-97000000D01*
X67000000Y-109540000D02*
X67000000Y-100000000D01*
X70000000Y-97000000D02*
X82400000Y-97000000D01*
X82400000Y-97000000D02*
X89200000Y-90200000D01*
X89660001Y-82799999D02*
X90460000Y-82000000D01*
X89200000Y-90200000D02*
X89200000Y-83260000D01*
X69540000Y-61000000D02*
X86000000Y-61000000D01*
X68620000Y-60080000D02*
X69540000Y-61000000D01*
X86000000Y-61000000D02*
X88000000Y-63000000D01*
X88000000Y-63000000D02*
X88000000Y-79540000D01*
X88000000Y-79540000D02*
X90460000Y-82000000D01*
M02*
