G04 #@! TF.GenerationSoftware,KiCad,Pcbnew,(5.1.2)-2*
G04 #@! TF.CreationDate,2019-09-19T14:38:41-05:00*
G04 #@! TF.ProjectId,PWM-H-Bridge,50574d2d-482d-4427-9269-6467652e6b69,rev?*
G04 #@! TF.SameCoordinates,Original*
G04 #@! TF.FileFunction,Soldermask,Bot*
G04 #@! TF.FilePolarity,Negative*
%FSLAX46Y46*%
G04 Gerber Fmt 4.6, Leading zero omitted, Abs format (unit mm)*
G04 Created by KiCad (PCBNEW (5.1.2)-2) date 2019-09-19 14:38:41*
%MOMM*%
%LPD*%
G04 APERTURE LIST*
%ADD10C,0.100000*%
G04 APERTURE END LIST*
D10*
G36*
X47151000Y-119151000D02*
G01*
X44849000Y-119151000D01*
X44849000Y-116849000D01*
X47151000Y-116849000D01*
X47151000Y-119151000D01*
X47151000Y-119151000D01*
G37*
G36*
X83326823Y-117161313D02*
G01*
X83487242Y-117209976D01*
X83554361Y-117245852D01*
X83635078Y-117288996D01*
X83764659Y-117395341D01*
X83871004Y-117524922D01*
X83871005Y-117524924D01*
X83950024Y-117672758D01*
X83998687Y-117833177D01*
X84015117Y-118000000D01*
X83998687Y-118166823D01*
X83950024Y-118327242D01*
X83909477Y-118403100D01*
X83871004Y-118475078D01*
X83764659Y-118604659D01*
X83635078Y-118711004D01*
X83635076Y-118711005D01*
X83487242Y-118790024D01*
X83326823Y-118838687D01*
X83201804Y-118851000D01*
X83118196Y-118851000D01*
X82993177Y-118838687D01*
X82832758Y-118790024D01*
X82684924Y-118711005D01*
X82684922Y-118711004D01*
X82555341Y-118604659D01*
X82448996Y-118475078D01*
X82410523Y-118403100D01*
X82369976Y-118327242D01*
X82321313Y-118166823D01*
X82304883Y-118000000D01*
X82321313Y-117833177D01*
X82369976Y-117672758D01*
X82448995Y-117524924D01*
X82448996Y-117524922D01*
X82555341Y-117395341D01*
X82684922Y-117288996D01*
X82765639Y-117245852D01*
X82832758Y-117209976D01*
X82993177Y-117161313D01*
X83118196Y-117149000D01*
X83201804Y-117149000D01*
X83326823Y-117161313D01*
X83326823Y-117161313D01*
G37*
G36*
X73248228Y-117181703D02*
G01*
X73403100Y-117245853D01*
X73542481Y-117338985D01*
X73661015Y-117457519D01*
X73754147Y-117596900D01*
X73818297Y-117751772D01*
X73851000Y-117916184D01*
X73851000Y-118083816D01*
X73818297Y-118248228D01*
X73754147Y-118403100D01*
X73661015Y-118542481D01*
X73542481Y-118661015D01*
X73403100Y-118754147D01*
X73248228Y-118818297D01*
X73083816Y-118851000D01*
X72916184Y-118851000D01*
X72751772Y-118818297D01*
X72596900Y-118754147D01*
X72457519Y-118661015D01*
X72338985Y-118542481D01*
X72245853Y-118403100D01*
X72181703Y-118248228D01*
X72149000Y-118083816D01*
X72149000Y-117916184D01*
X72181703Y-117751772D01*
X72245853Y-117596900D01*
X72338985Y-117457519D01*
X72457519Y-117338985D01*
X72596900Y-117245853D01*
X72751772Y-117181703D01*
X72916184Y-117149000D01*
X73083816Y-117149000D01*
X73248228Y-117181703D01*
X73248228Y-117181703D01*
G37*
G36*
X107125589Y-116238876D02*
G01*
X107224893Y-116258629D01*
X107365206Y-116316748D01*
X107491484Y-116401125D01*
X107598875Y-116508516D01*
X107683252Y-116634794D01*
X107741371Y-116775107D01*
X107771000Y-116924063D01*
X107771000Y-117075937D01*
X107741371Y-117224893D01*
X107683252Y-117365206D01*
X107598875Y-117491484D01*
X107491484Y-117598875D01*
X107365206Y-117683252D01*
X107224893Y-117741371D01*
X107125589Y-117761124D01*
X107075938Y-117771000D01*
X106924062Y-117771000D01*
X106874411Y-117761124D01*
X106775107Y-117741371D01*
X106634794Y-117683252D01*
X106508516Y-117598875D01*
X106401125Y-117491484D01*
X106316748Y-117365206D01*
X106258629Y-117224893D01*
X106229000Y-117075937D01*
X106229000Y-116924063D01*
X106258629Y-116775107D01*
X106316748Y-116634794D01*
X106401125Y-116508516D01*
X106508516Y-116401125D01*
X106634794Y-116316748D01*
X106775107Y-116258629D01*
X106874411Y-116238876D01*
X106924062Y-116229000D01*
X107075938Y-116229000D01*
X107125589Y-116238876D01*
X107125589Y-116238876D01*
G37*
G36*
X104585589Y-116238876D02*
G01*
X104684893Y-116258629D01*
X104825206Y-116316748D01*
X104951484Y-116401125D01*
X105058875Y-116508516D01*
X105143252Y-116634794D01*
X105201371Y-116775107D01*
X105231000Y-116924063D01*
X105231000Y-117075937D01*
X105201371Y-117224893D01*
X105143252Y-117365206D01*
X105058875Y-117491484D01*
X104951484Y-117598875D01*
X104825206Y-117683252D01*
X104684893Y-117741371D01*
X104585589Y-117761124D01*
X104535938Y-117771000D01*
X104384062Y-117771000D01*
X104334411Y-117761124D01*
X104235107Y-117741371D01*
X104094794Y-117683252D01*
X103968516Y-117598875D01*
X103861125Y-117491484D01*
X103776748Y-117365206D01*
X103718629Y-117224893D01*
X103689000Y-117075937D01*
X103689000Y-116924063D01*
X103718629Y-116775107D01*
X103776748Y-116634794D01*
X103861125Y-116508516D01*
X103968516Y-116401125D01*
X104094794Y-116316748D01*
X104235107Y-116258629D01*
X104334411Y-116238876D01*
X104384062Y-116229000D01*
X104535938Y-116229000D01*
X104585589Y-116238876D01*
X104585589Y-116238876D01*
G37*
G36*
X102045589Y-116238876D02*
G01*
X102144893Y-116258629D01*
X102285206Y-116316748D01*
X102411484Y-116401125D01*
X102518875Y-116508516D01*
X102603252Y-116634794D01*
X102661371Y-116775107D01*
X102691000Y-116924063D01*
X102691000Y-117075937D01*
X102661371Y-117224893D01*
X102603252Y-117365206D01*
X102518875Y-117491484D01*
X102411484Y-117598875D01*
X102285206Y-117683252D01*
X102144893Y-117741371D01*
X102045589Y-117761124D01*
X101995938Y-117771000D01*
X101844062Y-117771000D01*
X101794411Y-117761124D01*
X101695107Y-117741371D01*
X101554794Y-117683252D01*
X101428516Y-117598875D01*
X101321125Y-117491484D01*
X101236748Y-117365206D01*
X101178629Y-117224893D01*
X101149000Y-117075937D01*
X101149000Y-116924063D01*
X101178629Y-116775107D01*
X101236748Y-116634794D01*
X101321125Y-116508516D01*
X101428516Y-116401125D01*
X101554794Y-116316748D01*
X101695107Y-116258629D01*
X101794411Y-116238876D01*
X101844062Y-116229000D01*
X101995938Y-116229000D01*
X102045589Y-116238876D01*
X102045589Y-116238876D01*
G37*
G36*
X68786823Y-115401313D02*
G01*
X68947242Y-115449976D01*
X69079906Y-115520886D01*
X69095078Y-115528996D01*
X69224659Y-115635341D01*
X69331004Y-115764922D01*
X69331005Y-115764924D01*
X69410024Y-115912758D01*
X69458687Y-116073177D01*
X69475117Y-116240000D01*
X69458687Y-116406823D01*
X69410024Y-116567242D01*
X69359901Y-116661015D01*
X69331004Y-116715078D01*
X69224659Y-116844659D01*
X69095078Y-116951004D01*
X69095076Y-116951005D01*
X68947242Y-117030024D01*
X68786823Y-117078687D01*
X68661804Y-117091000D01*
X68578196Y-117091000D01*
X68453177Y-117078687D01*
X68292758Y-117030024D01*
X68144924Y-116951005D01*
X68144922Y-116951004D01*
X68015341Y-116844659D01*
X67908996Y-116715078D01*
X67880099Y-116661015D01*
X67829976Y-116567242D01*
X67781313Y-116406823D01*
X67764883Y-116240000D01*
X67781313Y-116073177D01*
X67829976Y-115912758D01*
X67908995Y-115764924D01*
X67908996Y-115764922D01*
X68015341Y-115635341D01*
X68144922Y-115528996D01*
X68160094Y-115520886D01*
X68292758Y-115449976D01*
X68453177Y-115401313D01*
X68578196Y-115389000D01*
X68661804Y-115389000D01*
X68786823Y-115401313D01*
X68786823Y-115401313D01*
G37*
G36*
X61166823Y-115401313D02*
G01*
X61327242Y-115449976D01*
X61459906Y-115520886D01*
X61475078Y-115528996D01*
X61604659Y-115635341D01*
X61711004Y-115764922D01*
X61711005Y-115764924D01*
X61790024Y-115912758D01*
X61838687Y-116073177D01*
X61855117Y-116240000D01*
X61838687Y-116406823D01*
X61790024Y-116567242D01*
X61739901Y-116661015D01*
X61711004Y-116715078D01*
X61604659Y-116844659D01*
X61475078Y-116951004D01*
X61475076Y-116951005D01*
X61327242Y-117030024D01*
X61166823Y-117078687D01*
X61041804Y-117091000D01*
X60958196Y-117091000D01*
X60833177Y-117078687D01*
X60672758Y-117030024D01*
X60524924Y-116951005D01*
X60524922Y-116951004D01*
X60395341Y-116844659D01*
X60288996Y-116715078D01*
X60260099Y-116661015D01*
X60209976Y-116567242D01*
X60161313Y-116406823D01*
X60144883Y-116240000D01*
X60161313Y-116073177D01*
X60209976Y-115912758D01*
X60288995Y-115764924D01*
X60288996Y-115764922D01*
X60395341Y-115635341D01*
X60524922Y-115528996D01*
X60540094Y-115520886D01*
X60672758Y-115449976D01*
X60833177Y-115401313D01*
X60958196Y-115389000D01*
X61041804Y-115389000D01*
X61166823Y-115401313D01*
X61166823Y-115401313D01*
G37*
G36*
X90748228Y-115181703D02*
G01*
X90903100Y-115245853D01*
X91042481Y-115338985D01*
X91161015Y-115457519D01*
X91254147Y-115596900D01*
X91318297Y-115751772D01*
X91351000Y-115916184D01*
X91351000Y-116083816D01*
X91318297Y-116248228D01*
X91254147Y-116403100D01*
X91161015Y-116542481D01*
X91042481Y-116661015D01*
X90903100Y-116754147D01*
X90748228Y-116818297D01*
X90583816Y-116851000D01*
X90416184Y-116851000D01*
X90251772Y-116818297D01*
X90096900Y-116754147D01*
X89957519Y-116661015D01*
X89838985Y-116542481D01*
X89745853Y-116403100D01*
X89681703Y-116248228D01*
X89649000Y-116083816D01*
X89649000Y-115916184D01*
X89681703Y-115751772D01*
X89745853Y-115596900D01*
X89838985Y-115457519D01*
X89957519Y-115338985D01*
X90096900Y-115245853D01*
X90251772Y-115181703D01*
X90416184Y-115149000D01*
X90583816Y-115149000D01*
X90748228Y-115181703D01*
X90748228Y-115181703D01*
G37*
G36*
X93248228Y-115181703D02*
G01*
X93403100Y-115245853D01*
X93542481Y-115338985D01*
X93661015Y-115457519D01*
X93754147Y-115596900D01*
X93818297Y-115751772D01*
X93851000Y-115916184D01*
X93851000Y-116083816D01*
X93818297Y-116248228D01*
X93754147Y-116403100D01*
X93661015Y-116542481D01*
X93542481Y-116661015D01*
X93403100Y-116754147D01*
X93248228Y-116818297D01*
X93083816Y-116851000D01*
X92916184Y-116851000D01*
X92751772Y-116818297D01*
X92596900Y-116754147D01*
X92457519Y-116661015D01*
X92338985Y-116542481D01*
X92245853Y-116403100D01*
X92181703Y-116248228D01*
X92149000Y-116083816D01*
X92149000Y-115916184D01*
X92181703Y-115751772D01*
X92245853Y-115596900D01*
X92338985Y-115457519D01*
X92457519Y-115338985D01*
X92596900Y-115245853D01*
X92751772Y-115181703D01*
X92916184Y-115149000D01*
X93083816Y-115149000D01*
X93248228Y-115181703D01*
X93248228Y-115181703D01*
G37*
G36*
X82248228Y-113181703D02*
G01*
X82403100Y-113245853D01*
X82542481Y-113338985D01*
X82661015Y-113457519D01*
X82754147Y-113596900D01*
X82818297Y-113751772D01*
X82851000Y-113916184D01*
X82851000Y-114083816D01*
X82818297Y-114248228D01*
X82754147Y-114403100D01*
X82661015Y-114542481D01*
X82542481Y-114661015D01*
X82403100Y-114754147D01*
X82248228Y-114818297D01*
X82083816Y-114851000D01*
X81916184Y-114851000D01*
X81751772Y-114818297D01*
X81596900Y-114754147D01*
X81457519Y-114661015D01*
X81338985Y-114542481D01*
X81245853Y-114403100D01*
X81181703Y-114248228D01*
X81149000Y-114083816D01*
X81149000Y-113916184D01*
X81181703Y-113751772D01*
X81245853Y-113596900D01*
X81338985Y-113457519D01*
X81457519Y-113338985D01*
X81596900Y-113245853D01*
X81751772Y-113181703D01*
X81916184Y-113149000D01*
X82083816Y-113149000D01*
X82248228Y-113181703D01*
X82248228Y-113181703D01*
G37*
G36*
X74248228Y-113181703D02*
G01*
X74403100Y-113245853D01*
X74542481Y-113338985D01*
X74661015Y-113457519D01*
X74754147Y-113596900D01*
X74818297Y-113751772D01*
X74851000Y-113916184D01*
X74851000Y-114083816D01*
X74818297Y-114248228D01*
X74754147Y-114403100D01*
X74661015Y-114542481D01*
X74542481Y-114661015D01*
X74403100Y-114754147D01*
X74248228Y-114818297D01*
X74083816Y-114851000D01*
X73916184Y-114851000D01*
X73751772Y-114818297D01*
X73596900Y-114754147D01*
X73457519Y-114661015D01*
X73338985Y-114542481D01*
X73245853Y-114403100D01*
X73181703Y-114248228D01*
X73149000Y-114083816D01*
X73149000Y-113916184D01*
X73181703Y-113751772D01*
X73245853Y-113596900D01*
X73338985Y-113457519D01*
X73457519Y-113338985D01*
X73596900Y-113245853D01*
X73751772Y-113181703D01*
X73916184Y-113149000D01*
X74083816Y-113149000D01*
X74248228Y-113181703D01*
X74248228Y-113181703D01*
G37*
G36*
X55248228Y-113181703D02*
G01*
X55403100Y-113245853D01*
X55542481Y-113338985D01*
X55661015Y-113457519D01*
X55754147Y-113596900D01*
X55818297Y-113751772D01*
X55851000Y-113916184D01*
X55851000Y-114083816D01*
X55818297Y-114248228D01*
X55754147Y-114403100D01*
X55661015Y-114542481D01*
X55542481Y-114661015D01*
X55403100Y-114754147D01*
X55248228Y-114818297D01*
X55083816Y-114851000D01*
X54916184Y-114851000D01*
X54751772Y-114818297D01*
X54596900Y-114754147D01*
X54457519Y-114661015D01*
X54338985Y-114542481D01*
X54245853Y-114403100D01*
X54181703Y-114248228D01*
X54149000Y-114083816D01*
X54149000Y-113916184D01*
X54181703Y-113751772D01*
X54245853Y-113596900D01*
X54338985Y-113457519D01*
X54457519Y-113338985D01*
X54596900Y-113245853D01*
X54751772Y-113181703D01*
X54916184Y-113149000D01*
X55083816Y-113149000D01*
X55248228Y-113181703D01*
X55248228Y-113181703D01*
G37*
G36*
X53851000Y-114851000D02*
G01*
X52149000Y-114851000D01*
X52149000Y-113149000D01*
X53851000Y-113149000D01*
X53851000Y-114851000D01*
X53851000Y-114851000D01*
G37*
G36*
X61166823Y-112861313D02*
G01*
X61327242Y-112909976D01*
X61459906Y-112980886D01*
X61475078Y-112988996D01*
X61604659Y-113095341D01*
X61711004Y-113224922D01*
X61711005Y-113224924D01*
X61790024Y-113372758D01*
X61838687Y-113533177D01*
X61855117Y-113700000D01*
X61838687Y-113866823D01*
X61790024Y-114027242D01*
X61719114Y-114159906D01*
X61711004Y-114175078D01*
X61604659Y-114304659D01*
X61475078Y-114411004D01*
X61475076Y-114411005D01*
X61327242Y-114490024D01*
X61166823Y-114538687D01*
X61041804Y-114551000D01*
X60958196Y-114551000D01*
X60833177Y-114538687D01*
X60672758Y-114490024D01*
X60524924Y-114411005D01*
X60524922Y-114411004D01*
X60395341Y-114304659D01*
X60288996Y-114175078D01*
X60280886Y-114159906D01*
X60209976Y-114027242D01*
X60161313Y-113866823D01*
X60144883Y-113700000D01*
X60161313Y-113533177D01*
X60209976Y-113372758D01*
X60288995Y-113224924D01*
X60288996Y-113224922D01*
X60395341Y-113095341D01*
X60524922Y-112988996D01*
X60540094Y-112980886D01*
X60672758Y-112909976D01*
X60833177Y-112861313D01*
X60958196Y-112849000D01*
X61041804Y-112849000D01*
X61166823Y-112861313D01*
X61166823Y-112861313D01*
G37*
G36*
X68786823Y-112861313D02*
G01*
X68947242Y-112909976D01*
X69079906Y-112980886D01*
X69095078Y-112988996D01*
X69224659Y-113095341D01*
X69331004Y-113224922D01*
X69331005Y-113224924D01*
X69410024Y-113372758D01*
X69458687Y-113533177D01*
X69475117Y-113700000D01*
X69458687Y-113866823D01*
X69410024Y-114027242D01*
X69339114Y-114159906D01*
X69331004Y-114175078D01*
X69224659Y-114304659D01*
X69095078Y-114411004D01*
X69095076Y-114411005D01*
X68947242Y-114490024D01*
X68786823Y-114538687D01*
X68661804Y-114551000D01*
X68578196Y-114551000D01*
X68453177Y-114538687D01*
X68292758Y-114490024D01*
X68144924Y-114411005D01*
X68144922Y-114411004D01*
X68015341Y-114304659D01*
X67908996Y-114175078D01*
X67900886Y-114159906D01*
X67829976Y-114027242D01*
X67781313Y-113866823D01*
X67764883Y-113700000D01*
X67781313Y-113533177D01*
X67829976Y-113372758D01*
X67908995Y-113224924D01*
X67908996Y-113224922D01*
X68015341Y-113095341D01*
X68144922Y-112988996D01*
X68160094Y-112980886D01*
X68292758Y-112909976D01*
X68453177Y-112861313D01*
X68578196Y-112849000D01*
X68661804Y-112849000D01*
X68786823Y-112861313D01*
X68786823Y-112861313D01*
G37*
G36*
X61166823Y-110321313D02*
G01*
X61327242Y-110369976D01*
X61402166Y-110410024D01*
X61475078Y-110448996D01*
X61604659Y-110555341D01*
X61711004Y-110684922D01*
X61711005Y-110684924D01*
X61790024Y-110832758D01*
X61838687Y-110993177D01*
X61855117Y-111160000D01*
X61838687Y-111326823D01*
X61790024Y-111487242D01*
X61719114Y-111619906D01*
X61711004Y-111635078D01*
X61604659Y-111764659D01*
X61475078Y-111871004D01*
X61475076Y-111871005D01*
X61327242Y-111950024D01*
X61166823Y-111998687D01*
X61041804Y-112011000D01*
X60958196Y-112011000D01*
X60833177Y-111998687D01*
X60672758Y-111950024D01*
X60524924Y-111871005D01*
X60524922Y-111871004D01*
X60395341Y-111764659D01*
X60288996Y-111635078D01*
X60280886Y-111619906D01*
X60209976Y-111487242D01*
X60161313Y-111326823D01*
X60144883Y-111160000D01*
X60161313Y-110993177D01*
X60209976Y-110832758D01*
X60288995Y-110684924D01*
X60288996Y-110684922D01*
X60395341Y-110555341D01*
X60524922Y-110448996D01*
X60597834Y-110410024D01*
X60672758Y-110369976D01*
X60833177Y-110321313D01*
X60958196Y-110309000D01*
X61041804Y-110309000D01*
X61166823Y-110321313D01*
X61166823Y-110321313D01*
G37*
G36*
X68786823Y-110321313D02*
G01*
X68947242Y-110369976D01*
X69022166Y-110410024D01*
X69095078Y-110448996D01*
X69224659Y-110555341D01*
X69331004Y-110684922D01*
X69331005Y-110684924D01*
X69410024Y-110832758D01*
X69458687Y-110993177D01*
X69475117Y-111160000D01*
X69458687Y-111326823D01*
X69410024Y-111487242D01*
X69339114Y-111619906D01*
X69331004Y-111635078D01*
X69224659Y-111764659D01*
X69095078Y-111871004D01*
X69095076Y-111871005D01*
X68947242Y-111950024D01*
X68786823Y-111998687D01*
X68661804Y-112011000D01*
X68578196Y-112011000D01*
X68453177Y-111998687D01*
X68292758Y-111950024D01*
X68144924Y-111871005D01*
X68144922Y-111871004D01*
X68015341Y-111764659D01*
X67908996Y-111635078D01*
X67900886Y-111619906D01*
X67829976Y-111487242D01*
X67781313Y-111326823D01*
X67764883Y-111160000D01*
X67781313Y-110993177D01*
X67829976Y-110832758D01*
X67908995Y-110684924D01*
X67908996Y-110684922D01*
X68015341Y-110555341D01*
X68144922Y-110448996D01*
X68217834Y-110410024D01*
X68292758Y-110369976D01*
X68453177Y-110321313D01*
X68578196Y-110309000D01*
X68661804Y-110309000D01*
X68786823Y-110321313D01*
X68786823Y-110321313D01*
G37*
G36*
X46169271Y-109240103D02*
G01*
X46225635Y-109245654D01*
X46442600Y-109311470D01*
X46442602Y-109311471D01*
X46642555Y-109418347D01*
X46817818Y-109562182D01*
X46961653Y-109737445D01*
X47068529Y-109937398D01*
X47068530Y-109937400D01*
X47134346Y-110154365D01*
X47156569Y-110380000D01*
X47134346Y-110605635D01*
X47110294Y-110684924D01*
X47068529Y-110822602D01*
X46961653Y-111022555D01*
X46817818Y-111197818D01*
X46642555Y-111341653D01*
X46442602Y-111448529D01*
X46442600Y-111448530D01*
X46225635Y-111514346D01*
X46169271Y-111519897D01*
X46056545Y-111531000D01*
X45943455Y-111531000D01*
X45830729Y-111519897D01*
X45774365Y-111514346D01*
X45557400Y-111448530D01*
X45557398Y-111448529D01*
X45357445Y-111341653D01*
X45182182Y-111197818D01*
X45038347Y-111022555D01*
X44931471Y-110822602D01*
X44889707Y-110684924D01*
X44865654Y-110605635D01*
X44843431Y-110380000D01*
X44865654Y-110154365D01*
X44931470Y-109937400D01*
X44931471Y-109937398D01*
X45038347Y-109737445D01*
X45182182Y-109562182D01*
X45357445Y-109418347D01*
X45557398Y-109311471D01*
X45557400Y-109311470D01*
X45774365Y-109245654D01*
X45830729Y-109240103D01*
X45943455Y-109229000D01*
X46056545Y-109229000D01*
X46169271Y-109240103D01*
X46169271Y-109240103D01*
G37*
G36*
X94166823Y-108781313D02*
G01*
X94327242Y-108829976D01*
X94459906Y-108900886D01*
X94475078Y-108908996D01*
X94604659Y-109015341D01*
X94711004Y-109144922D01*
X94711005Y-109144924D01*
X94790024Y-109292758D01*
X94838687Y-109453177D01*
X94855117Y-109620000D01*
X94838687Y-109786823D01*
X94790024Y-109947242D01*
X94719114Y-110079906D01*
X94711004Y-110095078D01*
X94604659Y-110224659D01*
X94475078Y-110331004D01*
X94475076Y-110331005D01*
X94327242Y-110410024D01*
X94166823Y-110458687D01*
X94041804Y-110471000D01*
X93958196Y-110471000D01*
X93833177Y-110458687D01*
X93672758Y-110410024D01*
X93524924Y-110331005D01*
X93524922Y-110331004D01*
X93395341Y-110224659D01*
X93288996Y-110095078D01*
X93280886Y-110079906D01*
X93209976Y-109947242D01*
X93161313Y-109786823D01*
X93144883Y-109620000D01*
X93161313Y-109453177D01*
X93209976Y-109292758D01*
X93288995Y-109144924D01*
X93288996Y-109144922D01*
X93395341Y-109015341D01*
X93524922Y-108908996D01*
X93540094Y-108900886D01*
X93672758Y-108829976D01*
X93833177Y-108781313D01*
X93958196Y-108769000D01*
X94041804Y-108769000D01*
X94166823Y-108781313D01*
X94166823Y-108781313D01*
G37*
G36*
X101786823Y-108781313D02*
G01*
X101947242Y-108829976D01*
X102079906Y-108900886D01*
X102095078Y-108908996D01*
X102224659Y-109015341D01*
X102331004Y-109144922D01*
X102331005Y-109144924D01*
X102410024Y-109292758D01*
X102458687Y-109453177D01*
X102475117Y-109620000D01*
X102458687Y-109786823D01*
X102410024Y-109947242D01*
X102339114Y-110079906D01*
X102331004Y-110095078D01*
X102224659Y-110224659D01*
X102095078Y-110331004D01*
X102095076Y-110331005D01*
X101947242Y-110410024D01*
X101786823Y-110458687D01*
X101661804Y-110471000D01*
X101578196Y-110471000D01*
X101453177Y-110458687D01*
X101292758Y-110410024D01*
X101144924Y-110331005D01*
X101144922Y-110331004D01*
X101015341Y-110224659D01*
X100908996Y-110095078D01*
X100900886Y-110079906D01*
X100829976Y-109947242D01*
X100781313Y-109786823D01*
X100764883Y-109620000D01*
X100781313Y-109453177D01*
X100829976Y-109292758D01*
X100908995Y-109144924D01*
X100908996Y-109144922D01*
X101015341Y-109015341D01*
X101144922Y-108908996D01*
X101160094Y-108900886D01*
X101292758Y-108829976D01*
X101453177Y-108781313D01*
X101578196Y-108769000D01*
X101661804Y-108769000D01*
X101786823Y-108781313D01*
X101786823Y-108781313D01*
G37*
G36*
X68786823Y-107781313D02*
G01*
X68947242Y-107829976D01*
X69022166Y-107870024D01*
X69095078Y-107908996D01*
X69224659Y-108015341D01*
X69331004Y-108144922D01*
X69331005Y-108144924D01*
X69410024Y-108292758D01*
X69458687Y-108453177D01*
X69475117Y-108620000D01*
X69458687Y-108786823D01*
X69410024Y-108947242D01*
X69373624Y-109015341D01*
X69331004Y-109095078D01*
X69224659Y-109224659D01*
X69095078Y-109331004D01*
X69095076Y-109331005D01*
X68947242Y-109410024D01*
X68786823Y-109458687D01*
X68661804Y-109471000D01*
X68578196Y-109471000D01*
X68453177Y-109458687D01*
X68292758Y-109410024D01*
X68144924Y-109331005D01*
X68144922Y-109331004D01*
X68015341Y-109224659D01*
X67908996Y-109095078D01*
X67866376Y-109015341D01*
X67829976Y-108947242D01*
X67781313Y-108786823D01*
X67764883Y-108620000D01*
X67781313Y-108453177D01*
X67829976Y-108292758D01*
X67908995Y-108144924D01*
X67908996Y-108144922D01*
X68015341Y-108015341D01*
X68144922Y-107908996D01*
X68217834Y-107870024D01*
X68292758Y-107829976D01*
X68453177Y-107781313D01*
X68578196Y-107769000D01*
X68661804Y-107769000D01*
X68786823Y-107781313D01*
X68786823Y-107781313D01*
G37*
G36*
X61166823Y-107781313D02*
G01*
X61327242Y-107829976D01*
X61402166Y-107870024D01*
X61475078Y-107908996D01*
X61604659Y-108015341D01*
X61711004Y-108144922D01*
X61711005Y-108144924D01*
X61790024Y-108292758D01*
X61838687Y-108453177D01*
X61855117Y-108620000D01*
X61838687Y-108786823D01*
X61790024Y-108947242D01*
X61753624Y-109015341D01*
X61711004Y-109095078D01*
X61604659Y-109224659D01*
X61475078Y-109331004D01*
X61475076Y-109331005D01*
X61327242Y-109410024D01*
X61166823Y-109458687D01*
X61041804Y-109471000D01*
X60958196Y-109471000D01*
X60833177Y-109458687D01*
X60672758Y-109410024D01*
X60524924Y-109331005D01*
X60524922Y-109331004D01*
X60395341Y-109224659D01*
X60288996Y-109095078D01*
X60246376Y-109015341D01*
X60209976Y-108947242D01*
X60161313Y-108786823D01*
X60144883Y-108620000D01*
X60161313Y-108453177D01*
X60209976Y-108292758D01*
X60288995Y-108144924D01*
X60288996Y-108144922D01*
X60395341Y-108015341D01*
X60524922Y-107908996D01*
X60597834Y-107870024D01*
X60672758Y-107829976D01*
X60833177Y-107781313D01*
X60958196Y-107769000D01*
X61041804Y-107769000D01*
X61166823Y-107781313D01*
X61166823Y-107781313D01*
G37*
G36*
X94166823Y-106241313D02*
G01*
X94327242Y-106289976D01*
X94459906Y-106360886D01*
X94475078Y-106368996D01*
X94604659Y-106475341D01*
X94711004Y-106604922D01*
X94711005Y-106604924D01*
X94790024Y-106752758D01*
X94838687Y-106913177D01*
X94855117Y-107080000D01*
X94838687Y-107246823D01*
X94790024Y-107407242D01*
X94719114Y-107539906D01*
X94711004Y-107555078D01*
X94604659Y-107684659D01*
X94475078Y-107791004D01*
X94475076Y-107791005D01*
X94327242Y-107870024D01*
X94166823Y-107918687D01*
X94041804Y-107931000D01*
X93958196Y-107931000D01*
X93833177Y-107918687D01*
X93672758Y-107870024D01*
X93524924Y-107791005D01*
X93524922Y-107791004D01*
X93395341Y-107684659D01*
X93288996Y-107555078D01*
X93280886Y-107539906D01*
X93209976Y-107407242D01*
X93161313Y-107246823D01*
X93144883Y-107080000D01*
X93161313Y-106913177D01*
X93209976Y-106752758D01*
X93288995Y-106604924D01*
X93288996Y-106604922D01*
X93395341Y-106475341D01*
X93524922Y-106368996D01*
X93540094Y-106360886D01*
X93672758Y-106289976D01*
X93833177Y-106241313D01*
X93958196Y-106229000D01*
X94041804Y-106229000D01*
X94166823Y-106241313D01*
X94166823Y-106241313D01*
G37*
G36*
X101786823Y-106241313D02*
G01*
X101947242Y-106289976D01*
X102079906Y-106360886D01*
X102095078Y-106368996D01*
X102224659Y-106475341D01*
X102331004Y-106604922D01*
X102331005Y-106604924D01*
X102410024Y-106752758D01*
X102458687Y-106913177D01*
X102475117Y-107080000D01*
X102458687Y-107246823D01*
X102410024Y-107407242D01*
X102339114Y-107539906D01*
X102331004Y-107555078D01*
X102224659Y-107684659D01*
X102095078Y-107791004D01*
X102095076Y-107791005D01*
X101947242Y-107870024D01*
X101786823Y-107918687D01*
X101661804Y-107931000D01*
X101578196Y-107931000D01*
X101453177Y-107918687D01*
X101292758Y-107870024D01*
X101144924Y-107791005D01*
X101144922Y-107791004D01*
X101015341Y-107684659D01*
X100908996Y-107555078D01*
X100900886Y-107539906D01*
X100829976Y-107407242D01*
X100781313Y-107246823D01*
X100764883Y-107080000D01*
X100781313Y-106913177D01*
X100829976Y-106752758D01*
X100908995Y-106604924D01*
X100908996Y-106604922D01*
X101015341Y-106475341D01*
X101144922Y-106368996D01*
X101160094Y-106360886D01*
X101292758Y-106289976D01*
X101453177Y-106241313D01*
X101578196Y-106229000D01*
X101661804Y-106229000D01*
X101786823Y-106241313D01*
X101786823Y-106241313D01*
G37*
G36*
X68786823Y-105241313D02*
G01*
X68947242Y-105289976D01*
X69022166Y-105330024D01*
X69095078Y-105368996D01*
X69224659Y-105475341D01*
X69331004Y-105604922D01*
X69331005Y-105604924D01*
X69410024Y-105752758D01*
X69458687Y-105913177D01*
X69475117Y-106080000D01*
X69458687Y-106246823D01*
X69421626Y-106368995D01*
X69411281Y-106403100D01*
X69410024Y-106407242D01*
X69373624Y-106475341D01*
X69331004Y-106555078D01*
X69224659Y-106684659D01*
X69095078Y-106791004D01*
X69095076Y-106791005D01*
X68947242Y-106870024D01*
X68786823Y-106918687D01*
X68661804Y-106931000D01*
X68578196Y-106931000D01*
X68453177Y-106918687D01*
X68292758Y-106870024D01*
X68144924Y-106791005D01*
X68144922Y-106791004D01*
X68015341Y-106684659D01*
X67908996Y-106555078D01*
X67866376Y-106475341D01*
X67829976Y-106407242D01*
X67828720Y-106403100D01*
X67818374Y-106368995D01*
X67781313Y-106246823D01*
X67764883Y-106080000D01*
X67781313Y-105913177D01*
X67829976Y-105752758D01*
X67908995Y-105604924D01*
X67908996Y-105604922D01*
X68015341Y-105475341D01*
X68144922Y-105368996D01*
X68217834Y-105330024D01*
X68292758Y-105289976D01*
X68453177Y-105241313D01*
X68578196Y-105229000D01*
X68661804Y-105229000D01*
X68786823Y-105241313D01*
X68786823Y-105241313D01*
G37*
G36*
X61166823Y-105241313D02*
G01*
X61327242Y-105289976D01*
X61402166Y-105330024D01*
X61475078Y-105368996D01*
X61604659Y-105475341D01*
X61711004Y-105604922D01*
X61711005Y-105604924D01*
X61790024Y-105752758D01*
X61838687Y-105913177D01*
X61855117Y-106080000D01*
X61838687Y-106246823D01*
X61801626Y-106368995D01*
X61791281Y-106403100D01*
X61790024Y-106407242D01*
X61753624Y-106475341D01*
X61711004Y-106555078D01*
X61604659Y-106684659D01*
X61475078Y-106791004D01*
X61475076Y-106791005D01*
X61327242Y-106870024D01*
X61166823Y-106918687D01*
X61041804Y-106931000D01*
X60958196Y-106931000D01*
X60833177Y-106918687D01*
X60672758Y-106870024D01*
X60524924Y-106791005D01*
X60524922Y-106791004D01*
X60395341Y-106684659D01*
X60288996Y-106555078D01*
X60246376Y-106475341D01*
X60209976Y-106407242D01*
X60208720Y-106403100D01*
X60198374Y-106368995D01*
X60161313Y-106246823D01*
X60144883Y-106080000D01*
X60161313Y-105913177D01*
X60209976Y-105752758D01*
X60288995Y-105604924D01*
X60288996Y-105604922D01*
X60395341Y-105475341D01*
X60524922Y-105368996D01*
X60597834Y-105330024D01*
X60672758Y-105289976D01*
X60833177Y-105241313D01*
X60958196Y-105229000D01*
X61041804Y-105229000D01*
X61166823Y-105241313D01*
X61166823Y-105241313D01*
G37*
G36*
X88248228Y-105181703D02*
G01*
X88403100Y-105245853D01*
X88542481Y-105338985D01*
X88661015Y-105457519D01*
X88754147Y-105596900D01*
X88818297Y-105751772D01*
X88851000Y-105916184D01*
X88851000Y-106083816D01*
X88818297Y-106248228D01*
X88754147Y-106403100D01*
X88661015Y-106542481D01*
X88542481Y-106661015D01*
X88403100Y-106754147D01*
X88248228Y-106818297D01*
X88083816Y-106851000D01*
X87916184Y-106851000D01*
X87751772Y-106818297D01*
X87596900Y-106754147D01*
X87457519Y-106661015D01*
X87338985Y-106542481D01*
X87245853Y-106403100D01*
X87181703Y-106248228D01*
X87149000Y-106083816D01*
X87149000Y-105916184D01*
X87181703Y-105751772D01*
X87245853Y-105596900D01*
X87338985Y-105457519D01*
X87457519Y-105338985D01*
X87596900Y-105245853D01*
X87751772Y-105181703D01*
X87916184Y-105149000D01*
X88083816Y-105149000D01*
X88248228Y-105181703D01*
X88248228Y-105181703D01*
G37*
G36*
X54851000Y-106851000D02*
G01*
X53149000Y-106851000D01*
X53149000Y-105149000D01*
X54851000Y-105149000D01*
X54851000Y-106851000D01*
X54851000Y-106851000D01*
G37*
G36*
X94166823Y-103701313D02*
G01*
X94327242Y-103749976D01*
X94455058Y-103818295D01*
X94475078Y-103828996D01*
X94604659Y-103935341D01*
X94711004Y-104064922D01*
X94711005Y-104064924D01*
X94790024Y-104212758D01*
X94838687Y-104373177D01*
X94855117Y-104540000D01*
X94838687Y-104706823D01*
X94790024Y-104867242D01*
X94719114Y-104999906D01*
X94711004Y-105015078D01*
X94604659Y-105144659D01*
X94475078Y-105251004D01*
X94475076Y-105251005D01*
X94327242Y-105330024D01*
X94166823Y-105378687D01*
X94041804Y-105391000D01*
X93958196Y-105391000D01*
X93833177Y-105378687D01*
X93672758Y-105330024D01*
X93524924Y-105251005D01*
X93524922Y-105251004D01*
X93395341Y-105144659D01*
X93288996Y-105015078D01*
X93280886Y-104999906D01*
X93209976Y-104867242D01*
X93161313Y-104706823D01*
X93144883Y-104540000D01*
X93161313Y-104373177D01*
X93209976Y-104212758D01*
X93288995Y-104064924D01*
X93288996Y-104064922D01*
X93395341Y-103935341D01*
X93524922Y-103828996D01*
X93544942Y-103818295D01*
X93672758Y-103749976D01*
X93833177Y-103701313D01*
X93958196Y-103689000D01*
X94041804Y-103689000D01*
X94166823Y-103701313D01*
X94166823Y-103701313D01*
G37*
G36*
X101786823Y-103701313D02*
G01*
X101947242Y-103749976D01*
X102075058Y-103818295D01*
X102095078Y-103828996D01*
X102224659Y-103935341D01*
X102331004Y-104064922D01*
X102331005Y-104064924D01*
X102410024Y-104212758D01*
X102458687Y-104373177D01*
X102475117Y-104540000D01*
X102458687Y-104706823D01*
X102410024Y-104867242D01*
X102339114Y-104999906D01*
X102331004Y-105015078D01*
X102224659Y-105144659D01*
X102095078Y-105251004D01*
X102095076Y-105251005D01*
X101947242Y-105330024D01*
X101786823Y-105378687D01*
X101661804Y-105391000D01*
X101578196Y-105391000D01*
X101453177Y-105378687D01*
X101292758Y-105330024D01*
X101144924Y-105251005D01*
X101144922Y-105251004D01*
X101015341Y-105144659D01*
X100908996Y-105015078D01*
X100900886Y-104999906D01*
X100829976Y-104867242D01*
X100781313Y-104706823D01*
X100764883Y-104540000D01*
X100781313Y-104373177D01*
X100829976Y-104212758D01*
X100908995Y-104064924D01*
X100908996Y-104064922D01*
X101015341Y-103935341D01*
X101144922Y-103828996D01*
X101164942Y-103818295D01*
X101292758Y-103749976D01*
X101453177Y-103701313D01*
X101578196Y-103689000D01*
X101661804Y-103689000D01*
X101786823Y-103701313D01*
X101786823Y-103701313D01*
G37*
G36*
X54248228Y-103181703D02*
G01*
X54403100Y-103245853D01*
X54542481Y-103338985D01*
X54661015Y-103457519D01*
X54754147Y-103596900D01*
X54818297Y-103751772D01*
X54851000Y-103916184D01*
X54851000Y-104083816D01*
X54818297Y-104248228D01*
X54754147Y-104403100D01*
X54661015Y-104542481D01*
X54542481Y-104661015D01*
X54403100Y-104754147D01*
X54248228Y-104818297D01*
X54083816Y-104851000D01*
X53916184Y-104851000D01*
X53751772Y-104818297D01*
X53596900Y-104754147D01*
X53457519Y-104661015D01*
X53338985Y-104542481D01*
X53245853Y-104403100D01*
X53181703Y-104248228D01*
X53149000Y-104083816D01*
X53149000Y-103916184D01*
X53181703Y-103751772D01*
X53245853Y-103596900D01*
X53338985Y-103457519D01*
X53457519Y-103338985D01*
X53596900Y-103245853D01*
X53751772Y-103181703D01*
X53916184Y-103149000D01*
X54083816Y-103149000D01*
X54248228Y-103181703D01*
X54248228Y-103181703D01*
G37*
G36*
X74166823Y-103001313D02*
G01*
X74327242Y-103049976D01*
X74390550Y-103083815D01*
X74475078Y-103128996D01*
X74604659Y-103235341D01*
X74711004Y-103364922D01*
X74711005Y-103364924D01*
X74790024Y-103512758D01*
X74838687Y-103673177D01*
X74855117Y-103840000D01*
X74838687Y-104006823D01*
X74790024Y-104167242D01*
X74719114Y-104299906D01*
X74711004Y-104315078D01*
X74604659Y-104444659D01*
X74475078Y-104551004D01*
X74475076Y-104551005D01*
X74327242Y-104630024D01*
X74166823Y-104678687D01*
X74041804Y-104691000D01*
X73958196Y-104691000D01*
X73833177Y-104678687D01*
X73672758Y-104630024D01*
X73524924Y-104551005D01*
X73524922Y-104551004D01*
X73395341Y-104444659D01*
X73288996Y-104315078D01*
X73280886Y-104299906D01*
X73209976Y-104167242D01*
X73161313Y-104006823D01*
X73144883Y-103840000D01*
X73161313Y-103673177D01*
X73209976Y-103512758D01*
X73288995Y-103364924D01*
X73288996Y-103364922D01*
X73395341Y-103235341D01*
X73524922Y-103128996D01*
X73609450Y-103083815D01*
X73672758Y-103049976D01*
X73833177Y-103001313D01*
X73958196Y-102989000D01*
X74041804Y-102989000D01*
X74166823Y-103001313D01*
X74166823Y-103001313D01*
G37*
G36*
X82166823Y-103001313D02*
G01*
X82327242Y-103049976D01*
X82390550Y-103083815D01*
X82475078Y-103128996D01*
X82604659Y-103235341D01*
X82711004Y-103364922D01*
X82711005Y-103364924D01*
X82790024Y-103512758D01*
X82838687Y-103673177D01*
X82855117Y-103840000D01*
X82838687Y-104006823D01*
X82790024Y-104167242D01*
X82719114Y-104299906D01*
X82711004Y-104315078D01*
X82604659Y-104444659D01*
X82475078Y-104551004D01*
X82475076Y-104551005D01*
X82327242Y-104630024D01*
X82166823Y-104678687D01*
X82041804Y-104691000D01*
X81958196Y-104691000D01*
X81833177Y-104678687D01*
X81672758Y-104630024D01*
X81524924Y-104551005D01*
X81524922Y-104551004D01*
X81395341Y-104444659D01*
X81288996Y-104315078D01*
X81280886Y-104299906D01*
X81209976Y-104167242D01*
X81161313Y-104006823D01*
X81144883Y-103840000D01*
X81161313Y-103673177D01*
X81209976Y-103512758D01*
X81288995Y-103364924D01*
X81288996Y-103364922D01*
X81395341Y-103235341D01*
X81524922Y-103128996D01*
X81609450Y-103083815D01*
X81672758Y-103049976D01*
X81833177Y-103001313D01*
X81958196Y-102989000D01*
X82041804Y-102989000D01*
X82166823Y-103001313D01*
X82166823Y-103001313D01*
G37*
G36*
X61166823Y-102701313D02*
G01*
X61327242Y-102749976D01*
X61402166Y-102790024D01*
X61475078Y-102828996D01*
X61604659Y-102935341D01*
X61711004Y-103064922D01*
X61711005Y-103064924D01*
X61790024Y-103212758D01*
X61838687Y-103373177D01*
X61855117Y-103540000D01*
X61838687Y-103706823D01*
X61790024Y-103867242D01*
X61763864Y-103916184D01*
X61711004Y-104015078D01*
X61604659Y-104144659D01*
X61475078Y-104251004D01*
X61475076Y-104251005D01*
X61327242Y-104330024D01*
X61166823Y-104378687D01*
X61041804Y-104391000D01*
X60958196Y-104391000D01*
X60833177Y-104378687D01*
X60672758Y-104330024D01*
X60524924Y-104251005D01*
X60524922Y-104251004D01*
X60395341Y-104144659D01*
X60288996Y-104015078D01*
X60236136Y-103916184D01*
X60209976Y-103867242D01*
X60161313Y-103706823D01*
X60144883Y-103540000D01*
X60161313Y-103373177D01*
X60209976Y-103212758D01*
X60288995Y-103064924D01*
X60288996Y-103064922D01*
X60395341Y-102935341D01*
X60524922Y-102828996D01*
X60597834Y-102790024D01*
X60672758Y-102749976D01*
X60833177Y-102701313D01*
X60958196Y-102689000D01*
X61041804Y-102689000D01*
X61166823Y-102701313D01*
X61166823Y-102701313D01*
G37*
G36*
X68786823Y-102701313D02*
G01*
X68947242Y-102749976D01*
X69022166Y-102790024D01*
X69095078Y-102828996D01*
X69224659Y-102935341D01*
X69331004Y-103064922D01*
X69331005Y-103064924D01*
X69410024Y-103212758D01*
X69458687Y-103373177D01*
X69475117Y-103540000D01*
X69458687Y-103706823D01*
X69410024Y-103867242D01*
X69383864Y-103916184D01*
X69331004Y-104015078D01*
X69224659Y-104144659D01*
X69095078Y-104251004D01*
X69095076Y-104251005D01*
X68947242Y-104330024D01*
X68786823Y-104378687D01*
X68661804Y-104391000D01*
X68578196Y-104391000D01*
X68453177Y-104378687D01*
X68292758Y-104330024D01*
X68144924Y-104251005D01*
X68144922Y-104251004D01*
X68015341Y-104144659D01*
X67908996Y-104015078D01*
X67856136Y-103916184D01*
X67829976Y-103867242D01*
X67781313Y-103706823D01*
X67764883Y-103540000D01*
X67781313Y-103373177D01*
X67829976Y-103212758D01*
X67908995Y-103064924D01*
X67908996Y-103064922D01*
X68015341Y-102935341D01*
X68144922Y-102828996D01*
X68217834Y-102790024D01*
X68292758Y-102749976D01*
X68453177Y-102701313D01*
X68578196Y-102689000D01*
X68661804Y-102689000D01*
X68786823Y-102701313D01*
X68786823Y-102701313D01*
G37*
G36*
X47248228Y-102181703D02*
G01*
X47403100Y-102245853D01*
X47542481Y-102338985D01*
X47661015Y-102457519D01*
X47754147Y-102596900D01*
X47818297Y-102751772D01*
X47851000Y-102916184D01*
X47851000Y-103083816D01*
X47818297Y-103248228D01*
X47754147Y-103403100D01*
X47661015Y-103542481D01*
X47542481Y-103661015D01*
X47403100Y-103754147D01*
X47248228Y-103818297D01*
X47083816Y-103851000D01*
X46916184Y-103851000D01*
X46751772Y-103818297D01*
X46596900Y-103754147D01*
X46457519Y-103661015D01*
X46338985Y-103542481D01*
X46245853Y-103403100D01*
X46181703Y-103248228D01*
X46149000Y-103083816D01*
X46149000Y-102916184D01*
X46181703Y-102751772D01*
X46245853Y-102596900D01*
X46338985Y-102457519D01*
X46457519Y-102338985D01*
X46596900Y-102245853D01*
X46751772Y-102181703D01*
X46916184Y-102149000D01*
X47083816Y-102149000D01*
X47248228Y-102181703D01*
X47248228Y-102181703D01*
G37*
G36*
X44748228Y-102181703D02*
G01*
X44903100Y-102245853D01*
X45042481Y-102338985D01*
X45161015Y-102457519D01*
X45254147Y-102596900D01*
X45318297Y-102751772D01*
X45351000Y-102916184D01*
X45351000Y-103083816D01*
X45318297Y-103248228D01*
X45254147Y-103403100D01*
X45161015Y-103542481D01*
X45042481Y-103661015D01*
X44903100Y-103754147D01*
X44748228Y-103818297D01*
X44583816Y-103851000D01*
X44416184Y-103851000D01*
X44251772Y-103818297D01*
X44096900Y-103754147D01*
X43957519Y-103661015D01*
X43838985Y-103542481D01*
X43745853Y-103403100D01*
X43681703Y-103248228D01*
X43649000Y-103083816D01*
X43649000Y-102916184D01*
X43681703Y-102751772D01*
X43745853Y-102596900D01*
X43838985Y-102457519D01*
X43957519Y-102338985D01*
X44096900Y-102245853D01*
X44251772Y-102181703D01*
X44416184Y-102149000D01*
X44583816Y-102149000D01*
X44748228Y-102181703D01*
X44748228Y-102181703D01*
G37*
G36*
X101786823Y-101161313D02*
G01*
X101947242Y-101209976D01*
X102018806Y-101248228D01*
X102095078Y-101288996D01*
X102224659Y-101395341D01*
X102331004Y-101524922D01*
X102331005Y-101524924D01*
X102410024Y-101672758D01*
X102458687Y-101833177D01*
X102475117Y-102000000D01*
X102458687Y-102166823D01*
X102410024Y-102327242D01*
X102403747Y-102338985D01*
X102331004Y-102475078D01*
X102224659Y-102604659D01*
X102095078Y-102711004D01*
X102095076Y-102711005D01*
X101947242Y-102790024D01*
X101786823Y-102838687D01*
X101661804Y-102851000D01*
X101578196Y-102851000D01*
X101453177Y-102838687D01*
X101292758Y-102790024D01*
X101144924Y-102711005D01*
X101144922Y-102711004D01*
X101015341Y-102604659D01*
X100908996Y-102475078D01*
X100836253Y-102338985D01*
X100829976Y-102327242D01*
X100781313Y-102166823D01*
X100764883Y-102000000D01*
X100781313Y-101833177D01*
X100829976Y-101672758D01*
X100908995Y-101524924D01*
X100908996Y-101524922D01*
X101015341Y-101395341D01*
X101144922Y-101288996D01*
X101221194Y-101248228D01*
X101292758Y-101209976D01*
X101453177Y-101161313D01*
X101578196Y-101149000D01*
X101661804Y-101149000D01*
X101786823Y-101161313D01*
X101786823Y-101161313D01*
G37*
G36*
X94851000Y-102851000D02*
G01*
X93149000Y-102851000D01*
X93149000Y-101149000D01*
X94851000Y-101149000D01*
X94851000Y-102851000D01*
X94851000Y-102851000D01*
G37*
G36*
X68786823Y-100161313D02*
G01*
X68947242Y-100209976D01*
X69014361Y-100245852D01*
X69095078Y-100288996D01*
X69224659Y-100395341D01*
X69331004Y-100524922D01*
X69331005Y-100524924D01*
X69410024Y-100672758D01*
X69458687Y-100833177D01*
X69475117Y-101000000D01*
X69458687Y-101166823D01*
X69410024Y-101327242D01*
X69369477Y-101403100D01*
X69331004Y-101475078D01*
X69224659Y-101604659D01*
X69095078Y-101711004D01*
X69095076Y-101711005D01*
X68947242Y-101790024D01*
X68786823Y-101838687D01*
X68661804Y-101851000D01*
X68578196Y-101851000D01*
X68453177Y-101838687D01*
X68292758Y-101790024D01*
X68144924Y-101711005D01*
X68144922Y-101711004D01*
X68015341Y-101604659D01*
X67908996Y-101475078D01*
X67870523Y-101403100D01*
X67829976Y-101327242D01*
X67781313Y-101166823D01*
X67764883Y-101000000D01*
X67781313Y-100833177D01*
X67829976Y-100672758D01*
X67908995Y-100524924D01*
X67908996Y-100524922D01*
X68015341Y-100395341D01*
X68144922Y-100288996D01*
X68225639Y-100245852D01*
X68292758Y-100209976D01*
X68453177Y-100161313D01*
X68578196Y-100149000D01*
X68661804Y-100149000D01*
X68786823Y-100161313D01*
X68786823Y-100161313D01*
G37*
G36*
X61851000Y-101851000D02*
G01*
X60149000Y-101851000D01*
X60149000Y-100149000D01*
X61851000Y-100149000D01*
X61851000Y-101851000D01*
X61851000Y-101851000D01*
G37*
G36*
X88248228Y-100181703D02*
G01*
X88403100Y-100245853D01*
X88542481Y-100338985D01*
X88661015Y-100457519D01*
X88754147Y-100596900D01*
X88818297Y-100751772D01*
X88851000Y-100916184D01*
X88851000Y-101083816D01*
X88818297Y-101248228D01*
X88754147Y-101403100D01*
X88661015Y-101542481D01*
X88542481Y-101661015D01*
X88403100Y-101754147D01*
X88248228Y-101818297D01*
X88083816Y-101851000D01*
X87916184Y-101851000D01*
X87751772Y-101818297D01*
X87596900Y-101754147D01*
X87457519Y-101661015D01*
X87338985Y-101542481D01*
X87245853Y-101403100D01*
X87181703Y-101248228D01*
X87149000Y-101083816D01*
X87149000Y-100916184D01*
X87181703Y-100751772D01*
X87245853Y-100596900D01*
X87338985Y-100457519D01*
X87457519Y-100338985D01*
X87596900Y-100245853D01*
X87751772Y-100181703D01*
X87916184Y-100149000D01*
X88083816Y-100149000D01*
X88248228Y-100181703D01*
X88248228Y-100181703D01*
G37*
G36*
X73248228Y-99181703D02*
G01*
X73403100Y-99245853D01*
X73542481Y-99338985D01*
X73661015Y-99457519D01*
X73754147Y-99596900D01*
X73818297Y-99751772D01*
X73851000Y-99916184D01*
X73851000Y-100083816D01*
X73818297Y-100248228D01*
X73754147Y-100403100D01*
X73661015Y-100542481D01*
X73542481Y-100661015D01*
X73403100Y-100754147D01*
X73248228Y-100818297D01*
X73083816Y-100851000D01*
X72916184Y-100851000D01*
X72751772Y-100818297D01*
X72596900Y-100754147D01*
X72457519Y-100661015D01*
X72338985Y-100542481D01*
X72245853Y-100403100D01*
X72181703Y-100248228D01*
X72149000Y-100083816D01*
X72149000Y-99916184D01*
X72181703Y-99751772D01*
X72245853Y-99596900D01*
X72338985Y-99457519D01*
X72457519Y-99338985D01*
X72596900Y-99245853D01*
X72751772Y-99181703D01*
X72916184Y-99149000D01*
X73083816Y-99149000D01*
X73248228Y-99181703D01*
X73248228Y-99181703D01*
G37*
G36*
X83326823Y-99161313D02*
G01*
X83487242Y-99209976D01*
X83554361Y-99245852D01*
X83635078Y-99288996D01*
X83764659Y-99395341D01*
X83871004Y-99524922D01*
X83871005Y-99524924D01*
X83950024Y-99672758D01*
X83998687Y-99833177D01*
X84015117Y-100000000D01*
X83998687Y-100166823D01*
X83950024Y-100327242D01*
X83909477Y-100403100D01*
X83871004Y-100475078D01*
X83764659Y-100604659D01*
X83635078Y-100711004D01*
X83635076Y-100711005D01*
X83487242Y-100790024D01*
X83326823Y-100838687D01*
X83201804Y-100851000D01*
X83118196Y-100851000D01*
X82993177Y-100838687D01*
X82832758Y-100790024D01*
X82684924Y-100711005D01*
X82684922Y-100711004D01*
X82555341Y-100604659D01*
X82448996Y-100475078D01*
X82410523Y-100403100D01*
X82369976Y-100327242D01*
X82321313Y-100166823D01*
X82304883Y-100000000D01*
X82321313Y-99833177D01*
X82369976Y-99672758D01*
X82448995Y-99524924D01*
X82448996Y-99524922D01*
X82555341Y-99395341D01*
X82684922Y-99288996D01*
X82765639Y-99245852D01*
X82832758Y-99209976D01*
X82993177Y-99161313D01*
X83118196Y-99149000D01*
X83201804Y-99149000D01*
X83326823Y-99161313D01*
X83326823Y-99161313D01*
G37*
G36*
X50116720Y-94963520D02*
G01*
X50305881Y-95020901D01*
X50480212Y-95114083D01*
X50633015Y-95239485D01*
X50758417Y-95392288D01*
X50793284Y-95457520D01*
X50851598Y-95566617D01*
X50851599Y-95566620D01*
X50908980Y-95755781D01*
X50923500Y-95903207D01*
X50923500Y-96096794D01*
X50908980Y-96244220D01*
X50851599Y-96433381D01*
X50758417Y-96607712D01*
X50633015Y-96760515D01*
X50480212Y-96885917D01*
X50398333Y-96929682D01*
X50305883Y-96979098D01*
X50305880Y-96979099D01*
X50116719Y-97036480D01*
X49920000Y-97055855D01*
X49723280Y-97036480D01*
X49534119Y-96979099D01*
X49359788Y-96885917D01*
X49206985Y-96760515D01*
X49081583Y-96607712D01*
X49037818Y-96525833D01*
X48988402Y-96433383D01*
X48979215Y-96403097D01*
X48931020Y-96244219D01*
X48916500Y-96096793D01*
X48916500Y-95903206D01*
X48931020Y-95755780D01*
X48988401Y-95566619D01*
X49081583Y-95392288D01*
X49206985Y-95239485D01*
X49359788Y-95114083D01*
X49534120Y-95020901D01*
X49723281Y-94963520D01*
X49920000Y-94944145D01*
X50116720Y-94963520D01*
X50116720Y-94963520D01*
G37*
G36*
X52656720Y-94963520D02*
G01*
X52845881Y-95020901D01*
X53020212Y-95114083D01*
X53173015Y-95239485D01*
X53298417Y-95392288D01*
X53333284Y-95457520D01*
X53391598Y-95566617D01*
X53391599Y-95566620D01*
X53448980Y-95755781D01*
X53463500Y-95903207D01*
X53463500Y-96096794D01*
X53448980Y-96244220D01*
X53391599Y-96433381D01*
X53298417Y-96607712D01*
X53173015Y-96760515D01*
X53020212Y-96885917D01*
X52938333Y-96929682D01*
X52845883Y-96979098D01*
X52845880Y-96979099D01*
X52656719Y-97036480D01*
X52460000Y-97055855D01*
X52263280Y-97036480D01*
X52074119Y-96979099D01*
X51899788Y-96885917D01*
X51746985Y-96760515D01*
X51621583Y-96607712D01*
X51577818Y-96525833D01*
X51528402Y-96433383D01*
X51519215Y-96403097D01*
X51471020Y-96244219D01*
X51456500Y-96096793D01*
X51456500Y-95903206D01*
X51471020Y-95755780D01*
X51528401Y-95566619D01*
X51621583Y-95392288D01*
X51746985Y-95239485D01*
X51899788Y-95114083D01*
X52074120Y-95020901D01*
X52263281Y-94963520D01*
X52460000Y-94944145D01*
X52656720Y-94963520D01*
X52656720Y-94963520D01*
G37*
G36*
X56003500Y-97051000D02*
G01*
X53996500Y-97051000D01*
X53996500Y-94949000D01*
X56003500Y-94949000D01*
X56003500Y-97051000D01*
X56003500Y-97051000D01*
G37*
G36*
X91748228Y-95181703D02*
G01*
X91903100Y-95245853D01*
X92042481Y-95338985D01*
X92161015Y-95457519D01*
X92254147Y-95596900D01*
X92318297Y-95751772D01*
X92351000Y-95916184D01*
X92351000Y-96083816D01*
X92318297Y-96248228D01*
X92254147Y-96403100D01*
X92161015Y-96542481D01*
X92042481Y-96661015D01*
X91903100Y-96754147D01*
X91748228Y-96818297D01*
X91583816Y-96851000D01*
X91416184Y-96851000D01*
X91251772Y-96818297D01*
X91096900Y-96754147D01*
X90957519Y-96661015D01*
X90838985Y-96542481D01*
X90745853Y-96403100D01*
X90681703Y-96248228D01*
X90649000Y-96083816D01*
X90649000Y-95916184D01*
X90681703Y-95751772D01*
X90745853Y-95596900D01*
X90838985Y-95457519D01*
X90957519Y-95338985D01*
X91096900Y-95245853D01*
X91251772Y-95181703D01*
X91416184Y-95149000D01*
X91583816Y-95149000D01*
X91748228Y-95181703D01*
X91748228Y-95181703D01*
G37*
G36*
X94248228Y-95181703D02*
G01*
X94403100Y-95245853D01*
X94542481Y-95338985D01*
X94661015Y-95457519D01*
X94754147Y-95596900D01*
X94818297Y-95751772D01*
X94851000Y-95916184D01*
X94851000Y-96083816D01*
X94818297Y-96248228D01*
X94754147Y-96403100D01*
X94661015Y-96542481D01*
X94542481Y-96661015D01*
X94403100Y-96754147D01*
X94248228Y-96818297D01*
X94083816Y-96851000D01*
X93916184Y-96851000D01*
X93751772Y-96818297D01*
X93596900Y-96754147D01*
X93457519Y-96661015D01*
X93338985Y-96542481D01*
X93245853Y-96403100D01*
X93181703Y-96248228D01*
X93149000Y-96083816D01*
X93149000Y-95916184D01*
X93181703Y-95751772D01*
X93245853Y-95596900D01*
X93338985Y-95457519D01*
X93457519Y-95338985D01*
X93596900Y-95245853D01*
X93751772Y-95181703D01*
X93916184Y-95149000D01*
X94083816Y-95149000D01*
X94248228Y-95181703D01*
X94248228Y-95181703D01*
G37*
G36*
X104751000Y-96351000D02*
G01*
X102049000Y-96351000D01*
X102049000Y-93649000D01*
X104751000Y-93649000D01*
X104751000Y-96351000D01*
X104751000Y-96351000D01*
G37*
G36*
X103794072Y-88700918D02*
G01*
X104039939Y-88802759D01*
X104127418Y-88861211D01*
X104258803Y-88949000D01*
X104261212Y-88950610D01*
X104449390Y-89138788D01*
X104591187Y-89351000D01*
X104597242Y-89360063D01*
X104699082Y-89605928D01*
X104751000Y-89866937D01*
X104751000Y-90133063D01*
X104699082Y-90394072D01*
X104597242Y-90639937D01*
X104449391Y-90861211D01*
X104261211Y-91049391D01*
X104251537Y-91055855D01*
X104039939Y-91197241D01*
X104039938Y-91197242D01*
X104039937Y-91197242D01*
X103794072Y-91299082D01*
X103533063Y-91351000D01*
X103266937Y-91351000D01*
X103005928Y-91299082D01*
X102760063Y-91197242D01*
X102760062Y-91197242D01*
X102760061Y-91197241D01*
X102548463Y-91055855D01*
X102538789Y-91049391D01*
X102350609Y-90861211D01*
X102202758Y-90639937D01*
X102100918Y-90394072D01*
X102049000Y-90133063D01*
X102049000Y-89866937D01*
X102100918Y-89605928D01*
X102202758Y-89360063D01*
X102208814Y-89351000D01*
X102350610Y-89138788D01*
X102538788Y-88950610D01*
X102541198Y-88949000D01*
X102672582Y-88861211D01*
X102760061Y-88802759D01*
X103005928Y-88700918D01*
X103266937Y-88649000D01*
X103533063Y-88649000D01*
X103794072Y-88700918D01*
X103794072Y-88700918D01*
G37*
G36*
X62116720Y-88963520D02*
G01*
X62305881Y-89020901D01*
X62480212Y-89114083D01*
X62633015Y-89239485D01*
X62758417Y-89392288D01*
X62790962Y-89453175D01*
X62851598Y-89566617D01*
X62851599Y-89566620D01*
X62908980Y-89755781D01*
X62923500Y-89903207D01*
X62923500Y-90096794D01*
X62908980Y-90244220D01*
X62851599Y-90433381D01*
X62758417Y-90607712D01*
X62633015Y-90760515D01*
X62480212Y-90885917D01*
X62398333Y-90929682D01*
X62305883Y-90979098D01*
X62305880Y-90979099D01*
X62116719Y-91036480D01*
X61920000Y-91055855D01*
X61723280Y-91036480D01*
X61534119Y-90979099D01*
X61359788Y-90885917D01*
X61206985Y-90760515D01*
X61081583Y-90607712D01*
X61008509Y-90471000D01*
X60988402Y-90433383D01*
X60988401Y-90433380D01*
X60931020Y-90244219D01*
X60916500Y-90096793D01*
X60916500Y-89903206D01*
X60931020Y-89755780D01*
X60988401Y-89566619D01*
X61081583Y-89392288D01*
X61206985Y-89239485D01*
X61359788Y-89114083D01*
X61534120Y-89020901D01*
X61723281Y-88963520D01*
X61920000Y-88944145D01*
X62116720Y-88963520D01*
X62116720Y-88963520D01*
G37*
G36*
X64656720Y-88963520D02*
G01*
X64845881Y-89020901D01*
X65020212Y-89114083D01*
X65173015Y-89239485D01*
X65298417Y-89392288D01*
X65330962Y-89453175D01*
X65391598Y-89566617D01*
X65391599Y-89566620D01*
X65448980Y-89755781D01*
X65463500Y-89903207D01*
X65463500Y-90096794D01*
X65448980Y-90244220D01*
X65391599Y-90433381D01*
X65298417Y-90607712D01*
X65173015Y-90760515D01*
X65020212Y-90885917D01*
X64938333Y-90929682D01*
X64845883Y-90979098D01*
X64845880Y-90979099D01*
X64656719Y-91036480D01*
X64460000Y-91055855D01*
X64263280Y-91036480D01*
X64074119Y-90979099D01*
X63899788Y-90885917D01*
X63746985Y-90760515D01*
X63621583Y-90607712D01*
X63548509Y-90471000D01*
X63528402Y-90433383D01*
X63528401Y-90433380D01*
X63471020Y-90244219D01*
X63456500Y-90096793D01*
X63456500Y-89903206D01*
X63471020Y-89755780D01*
X63528401Y-89566619D01*
X63621583Y-89392288D01*
X63746985Y-89239485D01*
X63899788Y-89114083D01*
X64074120Y-89020901D01*
X64263281Y-88963520D01*
X64460000Y-88944145D01*
X64656720Y-88963520D01*
X64656720Y-88963520D01*
G37*
G36*
X68003500Y-91051000D02*
G01*
X65996500Y-91051000D01*
X65996500Y-88949000D01*
X68003500Y-88949000D01*
X68003500Y-91051000D01*
X68003500Y-91051000D01*
G37*
G36*
X75386823Y-88781313D02*
G01*
X75547242Y-88829976D01*
X75605680Y-88861212D01*
X75695078Y-88908996D01*
X75824659Y-89015341D01*
X75931004Y-89144922D01*
X75931005Y-89144924D01*
X76010024Y-89292758D01*
X76058687Y-89453177D01*
X76075117Y-89620000D01*
X76058687Y-89786823D01*
X76010024Y-89947242D01*
X75939114Y-90079906D01*
X75931004Y-90095078D01*
X75824659Y-90224659D01*
X75695078Y-90331004D01*
X75695076Y-90331005D01*
X75547242Y-90410024D01*
X75386823Y-90458687D01*
X75261804Y-90471000D01*
X75178196Y-90471000D01*
X75053177Y-90458687D01*
X74892758Y-90410024D01*
X74744924Y-90331005D01*
X74744922Y-90331004D01*
X74615341Y-90224659D01*
X74508996Y-90095078D01*
X74500886Y-90079906D01*
X74429976Y-89947242D01*
X74381313Y-89786823D01*
X74364883Y-89620000D01*
X74381313Y-89453177D01*
X74429976Y-89292758D01*
X74508995Y-89144924D01*
X74508996Y-89144922D01*
X74615341Y-89015341D01*
X74744922Y-88908996D01*
X74834320Y-88861212D01*
X74892758Y-88829976D01*
X75053177Y-88781313D01*
X75178196Y-88769000D01*
X75261804Y-88769000D01*
X75386823Y-88781313D01*
X75386823Y-88781313D01*
G37*
G36*
X93166823Y-88781313D02*
G01*
X93327242Y-88829976D01*
X93385680Y-88861212D01*
X93475078Y-88908996D01*
X93604659Y-89015341D01*
X93711004Y-89144922D01*
X93711005Y-89144924D01*
X93790024Y-89292758D01*
X93838687Y-89453177D01*
X93855117Y-89620000D01*
X93838687Y-89786823D01*
X93790024Y-89947242D01*
X93719114Y-90079906D01*
X93711004Y-90095078D01*
X93604659Y-90224659D01*
X93475078Y-90331004D01*
X93475076Y-90331005D01*
X93327242Y-90410024D01*
X93166823Y-90458687D01*
X93041804Y-90471000D01*
X92958196Y-90471000D01*
X92833177Y-90458687D01*
X92672758Y-90410024D01*
X92524924Y-90331005D01*
X92524922Y-90331004D01*
X92395341Y-90224659D01*
X92288996Y-90095078D01*
X92280886Y-90079906D01*
X92209976Y-89947242D01*
X92161313Y-89786823D01*
X92144883Y-89620000D01*
X92161313Y-89453177D01*
X92209976Y-89292758D01*
X92288995Y-89144924D01*
X92288996Y-89144922D01*
X92395341Y-89015341D01*
X92524922Y-88908996D01*
X92614320Y-88861212D01*
X92672758Y-88829976D01*
X92833177Y-88781313D01*
X92958196Y-88769000D01*
X93041804Y-88769000D01*
X93166823Y-88781313D01*
X93166823Y-88781313D01*
G37*
G36*
X80466823Y-88781313D02*
G01*
X80627242Y-88829976D01*
X80685680Y-88861212D01*
X80775078Y-88908996D01*
X80904659Y-89015341D01*
X81011004Y-89144922D01*
X81011005Y-89144924D01*
X81090024Y-89292758D01*
X81138687Y-89453177D01*
X81155117Y-89620000D01*
X81138687Y-89786823D01*
X81090024Y-89947242D01*
X81019114Y-90079906D01*
X81011004Y-90095078D01*
X80904659Y-90224659D01*
X80775078Y-90331004D01*
X80775076Y-90331005D01*
X80627242Y-90410024D01*
X80466823Y-90458687D01*
X80341804Y-90471000D01*
X80258196Y-90471000D01*
X80133177Y-90458687D01*
X79972758Y-90410024D01*
X79824924Y-90331005D01*
X79824922Y-90331004D01*
X79695341Y-90224659D01*
X79588996Y-90095078D01*
X79580886Y-90079906D01*
X79509976Y-89947242D01*
X79461313Y-89786823D01*
X79444883Y-89620000D01*
X79461313Y-89453177D01*
X79509976Y-89292758D01*
X79588995Y-89144924D01*
X79588996Y-89144922D01*
X79695341Y-89015341D01*
X79824922Y-88908996D01*
X79914320Y-88861212D01*
X79972758Y-88829976D01*
X80133177Y-88781313D01*
X80258196Y-88769000D01*
X80341804Y-88769000D01*
X80466823Y-88781313D01*
X80466823Y-88781313D01*
G37*
G36*
X83006823Y-88781313D02*
G01*
X83167242Y-88829976D01*
X83225680Y-88861212D01*
X83315078Y-88908996D01*
X83444659Y-89015341D01*
X83551004Y-89144922D01*
X83551005Y-89144924D01*
X83630024Y-89292758D01*
X83678687Y-89453177D01*
X83695117Y-89620000D01*
X83678687Y-89786823D01*
X83630024Y-89947242D01*
X83559114Y-90079906D01*
X83551004Y-90095078D01*
X83444659Y-90224659D01*
X83315078Y-90331004D01*
X83315076Y-90331005D01*
X83167242Y-90410024D01*
X83006823Y-90458687D01*
X82881804Y-90471000D01*
X82798196Y-90471000D01*
X82673177Y-90458687D01*
X82512758Y-90410024D01*
X82364924Y-90331005D01*
X82364922Y-90331004D01*
X82235341Y-90224659D01*
X82128996Y-90095078D01*
X82120886Y-90079906D01*
X82049976Y-89947242D01*
X82001313Y-89786823D01*
X81984883Y-89620000D01*
X82001313Y-89453177D01*
X82049976Y-89292758D01*
X82128995Y-89144924D01*
X82128996Y-89144922D01*
X82235341Y-89015341D01*
X82364922Y-88908996D01*
X82454320Y-88861212D01*
X82512758Y-88829976D01*
X82673177Y-88781313D01*
X82798196Y-88769000D01*
X82881804Y-88769000D01*
X83006823Y-88781313D01*
X83006823Y-88781313D01*
G37*
G36*
X88086823Y-88781313D02*
G01*
X88247242Y-88829976D01*
X88305680Y-88861212D01*
X88395078Y-88908996D01*
X88524659Y-89015341D01*
X88631004Y-89144922D01*
X88631005Y-89144924D01*
X88710024Y-89292758D01*
X88758687Y-89453177D01*
X88775117Y-89620000D01*
X88758687Y-89786823D01*
X88710024Y-89947242D01*
X88639114Y-90079906D01*
X88631004Y-90095078D01*
X88524659Y-90224659D01*
X88395078Y-90331004D01*
X88395076Y-90331005D01*
X88247242Y-90410024D01*
X88086823Y-90458687D01*
X87961804Y-90471000D01*
X87878196Y-90471000D01*
X87753177Y-90458687D01*
X87592758Y-90410024D01*
X87444924Y-90331005D01*
X87444922Y-90331004D01*
X87315341Y-90224659D01*
X87208996Y-90095078D01*
X87200886Y-90079906D01*
X87129976Y-89947242D01*
X87081313Y-89786823D01*
X87064883Y-89620000D01*
X87081313Y-89453177D01*
X87129976Y-89292758D01*
X87208995Y-89144924D01*
X87208996Y-89144922D01*
X87315341Y-89015341D01*
X87444922Y-88908996D01*
X87534320Y-88861212D01*
X87592758Y-88829976D01*
X87753177Y-88781313D01*
X87878196Y-88769000D01*
X87961804Y-88769000D01*
X88086823Y-88781313D01*
X88086823Y-88781313D01*
G37*
G36*
X85546823Y-88781313D02*
G01*
X85707242Y-88829976D01*
X85765680Y-88861212D01*
X85855078Y-88908996D01*
X85984659Y-89015341D01*
X86091004Y-89144922D01*
X86091005Y-89144924D01*
X86170024Y-89292758D01*
X86218687Y-89453177D01*
X86235117Y-89620000D01*
X86218687Y-89786823D01*
X86170024Y-89947242D01*
X86099114Y-90079906D01*
X86091004Y-90095078D01*
X85984659Y-90224659D01*
X85855078Y-90331004D01*
X85855076Y-90331005D01*
X85707242Y-90410024D01*
X85546823Y-90458687D01*
X85421804Y-90471000D01*
X85338196Y-90471000D01*
X85213177Y-90458687D01*
X85052758Y-90410024D01*
X84904924Y-90331005D01*
X84904922Y-90331004D01*
X84775341Y-90224659D01*
X84668996Y-90095078D01*
X84660886Y-90079906D01*
X84589976Y-89947242D01*
X84541313Y-89786823D01*
X84524883Y-89620000D01*
X84541313Y-89453177D01*
X84589976Y-89292758D01*
X84668995Y-89144924D01*
X84668996Y-89144922D01*
X84775341Y-89015341D01*
X84904922Y-88908996D01*
X84994320Y-88861212D01*
X85052758Y-88829976D01*
X85213177Y-88781313D01*
X85338196Y-88769000D01*
X85421804Y-88769000D01*
X85546823Y-88781313D01*
X85546823Y-88781313D01*
G37*
G36*
X77926823Y-88781313D02*
G01*
X78087242Y-88829976D01*
X78145680Y-88861212D01*
X78235078Y-88908996D01*
X78364659Y-89015341D01*
X78471004Y-89144922D01*
X78471005Y-89144924D01*
X78550024Y-89292758D01*
X78598687Y-89453177D01*
X78615117Y-89620000D01*
X78598687Y-89786823D01*
X78550024Y-89947242D01*
X78479114Y-90079906D01*
X78471004Y-90095078D01*
X78364659Y-90224659D01*
X78235078Y-90331004D01*
X78235076Y-90331005D01*
X78087242Y-90410024D01*
X77926823Y-90458687D01*
X77801804Y-90471000D01*
X77718196Y-90471000D01*
X77593177Y-90458687D01*
X77432758Y-90410024D01*
X77284924Y-90331005D01*
X77284922Y-90331004D01*
X77155341Y-90224659D01*
X77048996Y-90095078D01*
X77040886Y-90079906D01*
X76969976Y-89947242D01*
X76921313Y-89786823D01*
X76904883Y-89620000D01*
X76921313Y-89453177D01*
X76969976Y-89292758D01*
X77048995Y-89144924D01*
X77048996Y-89144922D01*
X77155341Y-89015341D01*
X77284922Y-88908996D01*
X77374320Y-88861212D01*
X77432758Y-88829976D01*
X77593177Y-88781313D01*
X77718196Y-88769000D01*
X77801804Y-88769000D01*
X77926823Y-88781313D01*
X77926823Y-88781313D01*
G37*
G36*
X90626823Y-88781313D02*
G01*
X90787242Y-88829976D01*
X90845680Y-88861212D01*
X90935078Y-88908996D01*
X91064659Y-89015341D01*
X91171004Y-89144922D01*
X91171005Y-89144924D01*
X91250024Y-89292758D01*
X91298687Y-89453177D01*
X91315117Y-89620000D01*
X91298687Y-89786823D01*
X91250024Y-89947242D01*
X91179114Y-90079906D01*
X91171004Y-90095078D01*
X91064659Y-90224659D01*
X90935078Y-90331004D01*
X90935076Y-90331005D01*
X90787242Y-90410024D01*
X90626823Y-90458687D01*
X90501804Y-90471000D01*
X90418196Y-90471000D01*
X90293177Y-90458687D01*
X90132758Y-90410024D01*
X89984924Y-90331005D01*
X89984922Y-90331004D01*
X89855341Y-90224659D01*
X89748996Y-90095078D01*
X89740886Y-90079906D01*
X89669976Y-89947242D01*
X89621313Y-89786823D01*
X89604883Y-89620000D01*
X89621313Y-89453177D01*
X89669976Y-89292758D01*
X89748995Y-89144924D01*
X89748996Y-89144922D01*
X89855341Y-89015341D01*
X89984922Y-88908996D01*
X90074320Y-88861212D01*
X90132758Y-88829976D01*
X90293177Y-88781313D01*
X90418196Y-88769000D01*
X90501804Y-88769000D01*
X90626823Y-88781313D01*
X90626823Y-88781313D01*
G37*
G36*
X48394072Y-86700918D02*
G01*
X48639939Y-86802759D01*
X48861212Y-86950610D01*
X49049390Y-87138788D01*
X49197241Y-87360061D01*
X49299082Y-87605928D01*
X49351000Y-87866938D01*
X49351000Y-88133062D01*
X49299082Y-88394072D01*
X49197241Y-88639939D01*
X49156496Y-88700918D01*
X49070262Y-88829976D01*
X49049390Y-88861212D01*
X48861212Y-89049390D01*
X48639939Y-89197241D01*
X48639938Y-89197242D01*
X48639937Y-89197242D01*
X48394072Y-89299082D01*
X48133063Y-89351000D01*
X47866937Y-89351000D01*
X47605928Y-89299082D01*
X47360063Y-89197242D01*
X47360062Y-89197242D01*
X47360061Y-89197241D01*
X47138788Y-89049390D01*
X46950610Y-88861212D01*
X46929739Y-88829976D01*
X46843504Y-88700918D01*
X46802759Y-88639939D01*
X46700918Y-88394072D01*
X46649000Y-88133062D01*
X46649000Y-87866938D01*
X46700918Y-87605928D01*
X46802759Y-87360061D01*
X46950610Y-87138788D01*
X47138788Y-86950610D01*
X47360061Y-86802759D01*
X47605928Y-86700918D01*
X47866937Y-86649000D01*
X48133063Y-86649000D01*
X48394072Y-86700918D01*
X48394072Y-86700918D01*
G37*
G36*
X49351000Y-84351000D02*
G01*
X46649000Y-84351000D01*
X46649000Y-81649000D01*
X49351000Y-81649000D01*
X49351000Y-84351000D01*
X49351000Y-84351000D01*
G37*
G36*
X104751000Y-83351000D02*
G01*
X102049000Y-83351000D01*
X102049000Y-80649000D01*
X104751000Y-80649000D01*
X104751000Y-83351000D01*
X104751000Y-83351000D01*
G37*
G36*
X88086823Y-81161313D02*
G01*
X88247242Y-81209976D01*
X88379906Y-81280886D01*
X88395078Y-81288996D01*
X88524659Y-81395341D01*
X88631004Y-81524922D01*
X88631005Y-81524924D01*
X88710024Y-81672758D01*
X88758687Y-81833177D01*
X88775117Y-82000000D01*
X88758687Y-82166823D01*
X88710024Y-82327242D01*
X88639114Y-82459906D01*
X88631004Y-82475078D01*
X88524659Y-82604659D01*
X88395078Y-82711004D01*
X88395076Y-82711005D01*
X88247242Y-82790024D01*
X88086823Y-82838687D01*
X87961804Y-82851000D01*
X87878196Y-82851000D01*
X87753177Y-82838687D01*
X87592758Y-82790024D01*
X87444924Y-82711005D01*
X87444922Y-82711004D01*
X87315341Y-82604659D01*
X87208996Y-82475078D01*
X87200886Y-82459906D01*
X87129976Y-82327242D01*
X87081313Y-82166823D01*
X87064883Y-82000000D01*
X87081313Y-81833177D01*
X87129976Y-81672758D01*
X87208995Y-81524924D01*
X87208996Y-81524922D01*
X87315341Y-81395341D01*
X87444922Y-81288996D01*
X87460094Y-81280886D01*
X87592758Y-81209976D01*
X87753177Y-81161313D01*
X87878196Y-81149000D01*
X87961804Y-81149000D01*
X88086823Y-81161313D01*
X88086823Y-81161313D01*
G37*
G36*
X85546823Y-81161313D02*
G01*
X85707242Y-81209976D01*
X85839906Y-81280886D01*
X85855078Y-81288996D01*
X85984659Y-81395341D01*
X86091004Y-81524922D01*
X86091005Y-81524924D01*
X86170024Y-81672758D01*
X86218687Y-81833177D01*
X86235117Y-82000000D01*
X86218687Y-82166823D01*
X86170024Y-82327242D01*
X86099114Y-82459906D01*
X86091004Y-82475078D01*
X85984659Y-82604659D01*
X85855078Y-82711004D01*
X85855076Y-82711005D01*
X85707242Y-82790024D01*
X85546823Y-82838687D01*
X85421804Y-82851000D01*
X85338196Y-82851000D01*
X85213177Y-82838687D01*
X85052758Y-82790024D01*
X84904924Y-82711005D01*
X84904922Y-82711004D01*
X84775341Y-82604659D01*
X84668996Y-82475078D01*
X84660886Y-82459906D01*
X84589976Y-82327242D01*
X84541313Y-82166823D01*
X84524883Y-82000000D01*
X84541313Y-81833177D01*
X84589976Y-81672758D01*
X84668995Y-81524924D01*
X84668996Y-81524922D01*
X84775341Y-81395341D01*
X84904922Y-81288996D01*
X84920094Y-81280886D01*
X85052758Y-81209976D01*
X85213177Y-81161313D01*
X85338196Y-81149000D01*
X85421804Y-81149000D01*
X85546823Y-81161313D01*
X85546823Y-81161313D01*
G37*
G36*
X90626823Y-81161313D02*
G01*
X90787242Y-81209976D01*
X90919906Y-81280886D01*
X90935078Y-81288996D01*
X91064659Y-81395341D01*
X91171004Y-81524922D01*
X91171005Y-81524924D01*
X91250024Y-81672758D01*
X91298687Y-81833177D01*
X91315117Y-82000000D01*
X91298687Y-82166823D01*
X91250024Y-82327242D01*
X91179114Y-82459906D01*
X91171004Y-82475078D01*
X91064659Y-82604659D01*
X90935078Y-82711004D01*
X90935076Y-82711005D01*
X90787242Y-82790024D01*
X90626823Y-82838687D01*
X90501804Y-82851000D01*
X90418196Y-82851000D01*
X90293177Y-82838687D01*
X90132758Y-82790024D01*
X89984924Y-82711005D01*
X89984922Y-82711004D01*
X89855341Y-82604659D01*
X89748996Y-82475078D01*
X89740886Y-82459906D01*
X89669976Y-82327242D01*
X89621313Y-82166823D01*
X89604883Y-82000000D01*
X89621313Y-81833177D01*
X89669976Y-81672758D01*
X89748995Y-81524924D01*
X89748996Y-81524922D01*
X89855341Y-81395341D01*
X89984922Y-81288996D01*
X90000094Y-81280886D01*
X90132758Y-81209976D01*
X90293177Y-81161313D01*
X90418196Y-81149000D01*
X90501804Y-81149000D01*
X90626823Y-81161313D01*
X90626823Y-81161313D01*
G37*
G36*
X83006823Y-81161313D02*
G01*
X83167242Y-81209976D01*
X83299906Y-81280886D01*
X83315078Y-81288996D01*
X83444659Y-81395341D01*
X83551004Y-81524922D01*
X83551005Y-81524924D01*
X83630024Y-81672758D01*
X83678687Y-81833177D01*
X83695117Y-82000000D01*
X83678687Y-82166823D01*
X83630024Y-82327242D01*
X83559114Y-82459906D01*
X83551004Y-82475078D01*
X83444659Y-82604659D01*
X83315078Y-82711004D01*
X83315076Y-82711005D01*
X83167242Y-82790024D01*
X83006823Y-82838687D01*
X82881804Y-82851000D01*
X82798196Y-82851000D01*
X82673177Y-82838687D01*
X82512758Y-82790024D01*
X82364924Y-82711005D01*
X82364922Y-82711004D01*
X82235341Y-82604659D01*
X82128996Y-82475078D01*
X82120886Y-82459906D01*
X82049976Y-82327242D01*
X82001313Y-82166823D01*
X81984883Y-82000000D01*
X82001313Y-81833177D01*
X82049976Y-81672758D01*
X82128995Y-81524924D01*
X82128996Y-81524922D01*
X82235341Y-81395341D01*
X82364922Y-81288996D01*
X82380094Y-81280886D01*
X82512758Y-81209976D01*
X82673177Y-81161313D01*
X82798196Y-81149000D01*
X82881804Y-81149000D01*
X83006823Y-81161313D01*
X83006823Y-81161313D01*
G37*
G36*
X80466823Y-81161313D02*
G01*
X80627242Y-81209976D01*
X80759906Y-81280886D01*
X80775078Y-81288996D01*
X80904659Y-81395341D01*
X81011004Y-81524922D01*
X81011005Y-81524924D01*
X81090024Y-81672758D01*
X81138687Y-81833177D01*
X81155117Y-82000000D01*
X81138687Y-82166823D01*
X81090024Y-82327242D01*
X81019114Y-82459906D01*
X81011004Y-82475078D01*
X80904659Y-82604659D01*
X80775078Y-82711004D01*
X80775076Y-82711005D01*
X80627242Y-82790024D01*
X80466823Y-82838687D01*
X80341804Y-82851000D01*
X80258196Y-82851000D01*
X80133177Y-82838687D01*
X79972758Y-82790024D01*
X79824924Y-82711005D01*
X79824922Y-82711004D01*
X79695341Y-82604659D01*
X79588996Y-82475078D01*
X79580886Y-82459906D01*
X79509976Y-82327242D01*
X79461313Y-82166823D01*
X79444883Y-82000000D01*
X79461313Y-81833177D01*
X79509976Y-81672758D01*
X79588995Y-81524924D01*
X79588996Y-81524922D01*
X79695341Y-81395341D01*
X79824922Y-81288996D01*
X79840094Y-81280886D01*
X79972758Y-81209976D01*
X80133177Y-81161313D01*
X80258196Y-81149000D01*
X80341804Y-81149000D01*
X80466823Y-81161313D01*
X80466823Y-81161313D01*
G37*
G36*
X75386823Y-81161313D02*
G01*
X75547242Y-81209976D01*
X75679906Y-81280886D01*
X75695078Y-81288996D01*
X75824659Y-81395341D01*
X75931004Y-81524922D01*
X75931005Y-81524924D01*
X76010024Y-81672758D01*
X76058687Y-81833177D01*
X76075117Y-82000000D01*
X76058687Y-82166823D01*
X76010024Y-82327242D01*
X75939114Y-82459906D01*
X75931004Y-82475078D01*
X75824659Y-82604659D01*
X75695078Y-82711004D01*
X75695076Y-82711005D01*
X75547242Y-82790024D01*
X75386823Y-82838687D01*
X75261804Y-82851000D01*
X75178196Y-82851000D01*
X75053177Y-82838687D01*
X74892758Y-82790024D01*
X74744924Y-82711005D01*
X74744922Y-82711004D01*
X74615341Y-82604659D01*
X74508996Y-82475078D01*
X74500886Y-82459906D01*
X74429976Y-82327242D01*
X74381313Y-82166823D01*
X74364883Y-82000000D01*
X74381313Y-81833177D01*
X74429976Y-81672758D01*
X74508995Y-81524924D01*
X74508996Y-81524922D01*
X74615341Y-81395341D01*
X74744922Y-81288996D01*
X74760094Y-81280886D01*
X74892758Y-81209976D01*
X75053177Y-81161313D01*
X75178196Y-81149000D01*
X75261804Y-81149000D01*
X75386823Y-81161313D01*
X75386823Y-81161313D01*
G37*
G36*
X77926823Y-81161313D02*
G01*
X78087242Y-81209976D01*
X78219906Y-81280886D01*
X78235078Y-81288996D01*
X78364659Y-81395341D01*
X78471004Y-81524922D01*
X78471005Y-81524924D01*
X78550024Y-81672758D01*
X78598687Y-81833177D01*
X78615117Y-82000000D01*
X78598687Y-82166823D01*
X78550024Y-82327242D01*
X78479114Y-82459906D01*
X78471004Y-82475078D01*
X78364659Y-82604659D01*
X78235078Y-82711004D01*
X78235076Y-82711005D01*
X78087242Y-82790024D01*
X77926823Y-82838687D01*
X77801804Y-82851000D01*
X77718196Y-82851000D01*
X77593177Y-82838687D01*
X77432758Y-82790024D01*
X77284924Y-82711005D01*
X77284922Y-82711004D01*
X77155341Y-82604659D01*
X77048996Y-82475078D01*
X77040886Y-82459906D01*
X76969976Y-82327242D01*
X76921313Y-82166823D01*
X76904883Y-82000000D01*
X76921313Y-81833177D01*
X76969976Y-81672758D01*
X77048995Y-81524924D01*
X77048996Y-81524922D01*
X77155341Y-81395341D01*
X77284922Y-81288996D01*
X77300094Y-81280886D01*
X77432758Y-81209976D01*
X77593177Y-81161313D01*
X77718196Y-81149000D01*
X77801804Y-81149000D01*
X77926823Y-81161313D01*
X77926823Y-81161313D01*
G37*
G36*
X93851000Y-82851000D02*
G01*
X92149000Y-82851000D01*
X92149000Y-81149000D01*
X93851000Y-81149000D01*
X93851000Y-82851000D01*
X93851000Y-82851000D01*
G37*
G36*
X64736719Y-79963520D02*
G01*
X64925880Y-80020901D01*
X64925883Y-80020902D01*
X65018333Y-80070318D01*
X65100212Y-80114083D01*
X65253015Y-80239485D01*
X65378417Y-80392288D01*
X65471599Y-80566619D01*
X65528980Y-80755780D01*
X65543500Y-80903206D01*
X65543500Y-81096793D01*
X65528980Y-81244219D01*
X65515397Y-81288995D01*
X65471598Y-81433383D01*
X65422669Y-81524922D01*
X65378417Y-81607712D01*
X65253015Y-81760515D01*
X65100212Y-81885917D01*
X64925881Y-81979099D01*
X64736720Y-82036480D01*
X64540000Y-82055855D01*
X64343281Y-82036480D01*
X64154120Y-81979099D01*
X63979788Y-81885917D01*
X63826985Y-81760515D01*
X63701583Y-81607712D01*
X63608401Y-81433381D01*
X63551020Y-81244220D01*
X63536500Y-81096794D01*
X63536500Y-80903207D01*
X63551020Y-80755781D01*
X63608401Y-80566620D01*
X63608402Y-80566617D01*
X63657818Y-80474167D01*
X63701583Y-80392288D01*
X63826985Y-80239485D01*
X63979788Y-80114083D01*
X64154119Y-80020901D01*
X64343280Y-79963520D01*
X64540000Y-79944145D01*
X64736719Y-79963520D01*
X64736719Y-79963520D01*
G37*
G36*
X67276719Y-79963520D02*
G01*
X67465880Y-80020901D01*
X67465883Y-80020902D01*
X67558333Y-80070318D01*
X67640212Y-80114083D01*
X67793015Y-80239485D01*
X67918417Y-80392288D01*
X68011599Y-80566619D01*
X68068980Y-80755780D01*
X68083500Y-80903206D01*
X68083500Y-81096793D01*
X68068980Y-81244219D01*
X68055397Y-81288995D01*
X68011598Y-81433383D01*
X67962669Y-81524922D01*
X67918417Y-81607712D01*
X67793015Y-81760515D01*
X67640212Y-81885917D01*
X67465881Y-81979099D01*
X67276720Y-82036480D01*
X67080000Y-82055855D01*
X66883281Y-82036480D01*
X66694120Y-81979099D01*
X66519788Y-81885917D01*
X66366985Y-81760515D01*
X66241583Y-81607712D01*
X66148401Y-81433381D01*
X66091020Y-81244220D01*
X66076500Y-81096794D01*
X66076500Y-80903207D01*
X66091020Y-80755781D01*
X66148401Y-80566620D01*
X66148402Y-80566617D01*
X66197818Y-80474167D01*
X66241583Y-80392288D01*
X66366985Y-80239485D01*
X66519788Y-80114083D01*
X66694119Y-80020901D01*
X66883280Y-79963520D01*
X67080000Y-79944145D01*
X67276719Y-79963520D01*
X67276719Y-79963520D01*
G37*
G36*
X63003500Y-82051000D02*
G01*
X60996500Y-82051000D01*
X60996500Y-79949000D01*
X63003500Y-79949000D01*
X63003500Y-82051000D01*
X63003500Y-82051000D01*
G37*
G36*
X103794072Y-75700918D02*
G01*
X104039939Y-75802759D01*
X104261212Y-75950610D01*
X104449390Y-76138788D01*
X104597241Y-76360061D01*
X104699082Y-76605928D01*
X104751000Y-76866938D01*
X104751000Y-77133062D01*
X104699082Y-77394072D01*
X104597241Y-77639939D01*
X104449390Y-77861212D01*
X104261212Y-78049390D01*
X104039939Y-78197241D01*
X104039938Y-78197242D01*
X104039937Y-78197242D01*
X103794072Y-78299082D01*
X103533063Y-78351000D01*
X103266937Y-78351000D01*
X103005928Y-78299082D01*
X102760063Y-78197242D01*
X102760062Y-78197242D01*
X102760061Y-78197241D01*
X102538788Y-78049390D01*
X102350610Y-77861212D01*
X102202759Y-77639939D01*
X102100918Y-77394072D01*
X102049000Y-77133062D01*
X102049000Y-76866938D01*
X102100918Y-76605928D01*
X102202759Y-76360061D01*
X102350610Y-76138788D01*
X102538788Y-75950610D01*
X102760061Y-75802759D01*
X103005928Y-75700918D01*
X103266937Y-75649000D01*
X103533063Y-75649000D01*
X103794072Y-75700918D01*
X103794072Y-75700918D01*
G37*
G36*
X52736719Y-73963520D02*
G01*
X52925880Y-74020901D01*
X52925883Y-74020902D01*
X53018333Y-74070318D01*
X53100212Y-74114083D01*
X53253015Y-74239485D01*
X53378417Y-74392288D01*
X53471599Y-74566619D01*
X53528980Y-74755780D01*
X53543500Y-74903206D01*
X53543500Y-75096793D01*
X53528980Y-75244219D01*
X53471599Y-75433380D01*
X53471598Y-75433383D01*
X53422182Y-75525833D01*
X53378417Y-75607712D01*
X53253015Y-75760515D01*
X53100212Y-75885917D01*
X52925881Y-75979099D01*
X52736720Y-76036480D01*
X52540000Y-76055855D01*
X52343281Y-76036480D01*
X52154120Y-75979099D01*
X51979788Y-75885917D01*
X51826985Y-75760515D01*
X51701583Y-75607712D01*
X51608401Y-75433381D01*
X51551020Y-75244220D01*
X51536500Y-75096794D01*
X51536500Y-74903207D01*
X51551020Y-74755781D01*
X51608401Y-74566620D01*
X51608402Y-74566617D01*
X51657818Y-74474167D01*
X51701583Y-74392288D01*
X51826985Y-74239485D01*
X51979788Y-74114083D01*
X52154119Y-74020901D01*
X52343280Y-73963520D01*
X52540000Y-73944145D01*
X52736719Y-73963520D01*
X52736719Y-73963520D01*
G37*
G36*
X55276719Y-73963520D02*
G01*
X55465880Y-74020901D01*
X55465883Y-74020902D01*
X55558333Y-74070318D01*
X55640212Y-74114083D01*
X55793015Y-74239485D01*
X55918417Y-74392288D01*
X56011599Y-74566619D01*
X56068980Y-74755780D01*
X56083500Y-74903206D01*
X56083500Y-75096793D01*
X56068980Y-75244219D01*
X56011599Y-75433380D01*
X56011598Y-75433383D01*
X55962182Y-75525833D01*
X55918417Y-75607712D01*
X55793015Y-75760515D01*
X55640212Y-75885917D01*
X55465881Y-75979099D01*
X55276720Y-76036480D01*
X55080000Y-76055855D01*
X54883281Y-76036480D01*
X54694120Y-75979099D01*
X54519788Y-75885917D01*
X54366985Y-75760515D01*
X54241583Y-75607712D01*
X54148401Y-75433381D01*
X54091020Y-75244220D01*
X54076500Y-75096794D01*
X54076500Y-74903207D01*
X54091020Y-74755781D01*
X54148401Y-74566620D01*
X54148402Y-74566617D01*
X54197818Y-74474167D01*
X54241583Y-74392288D01*
X54366985Y-74239485D01*
X54519788Y-74114083D01*
X54694119Y-74020901D01*
X54883280Y-73963520D01*
X55080000Y-73944145D01*
X55276719Y-73963520D01*
X55276719Y-73963520D01*
G37*
G36*
X51003500Y-76051000D02*
G01*
X48996500Y-76051000D01*
X48996500Y-73949000D01*
X51003500Y-73949000D01*
X51003500Y-76051000D01*
X51003500Y-76051000D01*
G37*
G36*
X83326823Y-72161313D02*
G01*
X83487242Y-72209976D01*
X83554361Y-72245852D01*
X83635078Y-72288996D01*
X83764659Y-72395341D01*
X83871004Y-72524922D01*
X83871005Y-72524924D01*
X83950024Y-72672758D01*
X83998687Y-72833177D01*
X84015117Y-73000000D01*
X83998687Y-73166823D01*
X83950024Y-73327242D01*
X83909477Y-73403100D01*
X83871004Y-73475078D01*
X83764659Y-73604659D01*
X83635078Y-73711004D01*
X83635076Y-73711005D01*
X83487242Y-73790024D01*
X83326823Y-73838687D01*
X83201804Y-73851000D01*
X83118196Y-73851000D01*
X82993177Y-73838687D01*
X82832758Y-73790024D01*
X82684924Y-73711005D01*
X82684922Y-73711004D01*
X82555341Y-73604659D01*
X82448996Y-73475078D01*
X82410523Y-73403100D01*
X82369976Y-73327242D01*
X82321313Y-73166823D01*
X82304883Y-73000000D01*
X82321313Y-72833177D01*
X82369976Y-72672758D01*
X82448995Y-72524924D01*
X82448996Y-72524922D01*
X82555341Y-72395341D01*
X82684922Y-72288996D01*
X82765639Y-72245852D01*
X82832758Y-72209976D01*
X82993177Y-72161313D01*
X83118196Y-72149000D01*
X83201804Y-72149000D01*
X83326823Y-72161313D01*
X83326823Y-72161313D01*
G37*
G36*
X73248228Y-72181703D02*
G01*
X73403100Y-72245853D01*
X73542481Y-72338985D01*
X73661015Y-72457519D01*
X73754147Y-72596900D01*
X73818297Y-72751772D01*
X73851000Y-72916184D01*
X73851000Y-73083816D01*
X73818297Y-73248228D01*
X73754147Y-73403100D01*
X73661015Y-73542481D01*
X73542481Y-73661015D01*
X73403100Y-73754147D01*
X73248228Y-73818297D01*
X73083816Y-73851000D01*
X72916184Y-73851000D01*
X72751772Y-73818297D01*
X72596900Y-73754147D01*
X72457519Y-73661015D01*
X72338985Y-73542481D01*
X72245853Y-73403100D01*
X72181703Y-73248228D01*
X72149000Y-73083816D01*
X72149000Y-72916184D01*
X72181703Y-72751772D01*
X72245853Y-72596900D01*
X72338985Y-72457519D01*
X72457519Y-72338985D01*
X72596900Y-72245853D01*
X72751772Y-72181703D01*
X72916184Y-72149000D01*
X73083816Y-72149000D01*
X73248228Y-72181703D01*
X73248228Y-72181703D01*
G37*
G36*
X61166823Y-69401313D02*
G01*
X61327242Y-69449976D01*
X61459906Y-69520886D01*
X61475078Y-69528996D01*
X61604659Y-69635341D01*
X61711004Y-69764922D01*
X61711005Y-69764924D01*
X61790024Y-69912758D01*
X61838687Y-70073177D01*
X61855117Y-70240000D01*
X61838687Y-70406823D01*
X61790024Y-70567242D01*
X61719114Y-70699906D01*
X61711004Y-70715078D01*
X61604659Y-70844659D01*
X61475078Y-70951004D01*
X61475076Y-70951005D01*
X61327242Y-71030024D01*
X61166823Y-71078687D01*
X61041804Y-71091000D01*
X60958196Y-71091000D01*
X60833177Y-71078687D01*
X60672758Y-71030024D01*
X60524924Y-70951005D01*
X60524922Y-70951004D01*
X60395341Y-70844659D01*
X60288996Y-70715078D01*
X60280886Y-70699906D01*
X60209976Y-70567242D01*
X60161313Y-70406823D01*
X60144883Y-70240000D01*
X60161313Y-70073177D01*
X60209976Y-69912758D01*
X60288995Y-69764924D01*
X60288996Y-69764922D01*
X60395341Y-69635341D01*
X60524922Y-69528996D01*
X60540094Y-69520886D01*
X60672758Y-69449976D01*
X60833177Y-69401313D01*
X60958196Y-69389000D01*
X61041804Y-69389000D01*
X61166823Y-69401313D01*
X61166823Y-69401313D01*
G37*
G36*
X68786823Y-69401313D02*
G01*
X68947242Y-69449976D01*
X69079906Y-69520886D01*
X69095078Y-69528996D01*
X69224659Y-69635341D01*
X69331004Y-69764922D01*
X69331005Y-69764924D01*
X69410024Y-69912758D01*
X69458687Y-70073177D01*
X69475117Y-70240000D01*
X69458687Y-70406823D01*
X69410024Y-70567242D01*
X69339114Y-70699906D01*
X69331004Y-70715078D01*
X69224659Y-70844659D01*
X69095078Y-70951004D01*
X69095076Y-70951005D01*
X68947242Y-71030024D01*
X68786823Y-71078687D01*
X68661804Y-71091000D01*
X68578196Y-71091000D01*
X68453177Y-71078687D01*
X68292758Y-71030024D01*
X68144924Y-70951005D01*
X68144922Y-70951004D01*
X68015341Y-70844659D01*
X67908996Y-70715078D01*
X67900886Y-70699906D01*
X67829976Y-70567242D01*
X67781313Y-70406823D01*
X67764883Y-70240000D01*
X67781313Y-70073177D01*
X67829976Y-69912758D01*
X67908995Y-69764924D01*
X67908996Y-69764922D01*
X68015341Y-69635341D01*
X68144922Y-69528996D01*
X68160094Y-69520886D01*
X68292758Y-69449976D01*
X68453177Y-69401313D01*
X68578196Y-69389000D01*
X68661804Y-69389000D01*
X68786823Y-69401313D01*
X68786823Y-69401313D01*
G37*
G36*
X74166823Y-68321313D02*
G01*
X74327242Y-68369976D01*
X74459906Y-68440886D01*
X74475078Y-68448996D01*
X74604659Y-68555341D01*
X74711004Y-68684922D01*
X74711005Y-68684924D01*
X74790024Y-68832758D01*
X74838687Y-68993177D01*
X74855117Y-69160000D01*
X74838687Y-69326823D01*
X74790024Y-69487242D01*
X74767706Y-69528996D01*
X74711004Y-69635078D01*
X74604659Y-69764659D01*
X74475078Y-69871004D01*
X74475076Y-69871005D01*
X74327242Y-69950024D01*
X74166823Y-69998687D01*
X74041804Y-70011000D01*
X73958196Y-70011000D01*
X73833177Y-69998687D01*
X73672758Y-69950024D01*
X73524924Y-69871005D01*
X73524922Y-69871004D01*
X73395341Y-69764659D01*
X73288996Y-69635078D01*
X73232294Y-69528996D01*
X73209976Y-69487242D01*
X73161313Y-69326823D01*
X73144883Y-69160000D01*
X73161313Y-68993177D01*
X73209976Y-68832758D01*
X73288995Y-68684924D01*
X73288996Y-68684922D01*
X73395341Y-68555341D01*
X73524922Y-68448996D01*
X73540094Y-68440886D01*
X73672758Y-68369976D01*
X73833177Y-68321313D01*
X73958196Y-68309000D01*
X74041804Y-68309000D01*
X74166823Y-68321313D01*
X74166823Y-68321313D01*
G37*
G36*
X82166823Y-68321313D02*
G01*
X82327242Y-68369976D01*
X82459906Y-68440886D01*
X82475078Y-68448996D01*
X82604659Y-68555341D01*
X82711004Y-68684922D01*
X82711005Y-68684924D01*
X82790024Y-68832758D01*
X82838687Y-68993177D01*
X82855117Y-69160000D01*
X82838687Y-69326823D01*
X82790024Y-69487242D01*
X82767706Y-69528996D01*
X82711004Y-69635078D01*
X82604659Y-69764659D01*
X82475078Y-69871004D01*
X82475076Y-69871005D01*
X82327242Y-69950024D01*
X82166823Y-69998687D01*
X82041804Y-70011000D01*
X81958196Y-70011000D01*
X81833177Y-69998687D01*
X81672758Y-69950024D01*
X81524924Y-69871005D01*
X81524922Y-69871004D01*
X81395341Y-69764659D01*
X81288996Y-69635078D01*
X81232294Y-69528996D01*
X81209976Y-69487242D01*
X81161313Y-69326823D01*
X81144883Y-69160000D01*
X81161313Y-68993177D01*
X81209976Y-68832758D01*
X81288995Y-68684924D01*
X81288996Y-68684922D01*
X81395341Y-68555341D01*
X81524922Y-68448996D01*
X81540094Y-68440886D01*
X81672758Y-68369976D01*
X81833177Y-68321313D01*
X81958196Y-68309000D01*
X82041804Y-68309000D01*
X82166823Y-68321313D01*
X82166823Y-68321313D01*
G37*
G36*
X44748228Y-67181703D02*
G01*
X44903100Y-67245853D01*
X45042481Y-67338985D01*
X45161015Y-67457519D01*
X45254147Y-67596900D01*
X45318297Y-67751772D01*
X45351000Y-67916184D01*
X45351000Y-68083816D01*
X45318297Y-68248228D01*
X45254147Y-68403100D01*
X45161015Y-68542481D01*
X45042481Y-68661015D01*
X44903100Y-68754147D01*
X44748228Y-68818297D01*
X44583816Y-68851000D01*
X44416184Y-68851000D01*
X44251772Y-68818297D01*
X44096900Y-68754147D01*
X43957519Y-68661015D01*
X43838985Y-68542481D01*
X43745853Y-68403100D01*
X43681703Y-68248228D01*
X43649000Y-68083816D01*
X43649000Y-67916184D01*
X43681703Y-67751772D01*
X43745853Y-67596900D01*
X43838985Y-67457519D01*
X43957519Y-67338985D01*
X44096900Y-67245853D01*
X44251772Y-67181703D01*
X44416184Y-67149000D01*
X44583816Y-67149000D01*
X44748228Y-67181703D01*
X44748228Y-67181703D01*
G37*
G36*
X47248228Y-67181703D02*
G01*
X47403100Y-67245853D01*
X47542481Y-67338985D01*
X47661015Y-67457519D01*
X47754147Y-67596900D01*
X47818297Y-67751772D01*
X47851000Y-67916184D01*
X47851000Y-68083816D01*
X47818297Y-68248228D01*
X47754147Y-68403100D01*
X47661015Y-68542481D01*
X47542481Y-68661015D01*
X47403100Y-68754147D01*
X47248228Y-68818297D01*
X47083816Y-68851000D01*
X46916184Y-68851000D01*
X46751772Y-68818297D01*
X46596900Y-68754147D01*
X46457519Y-68661015D01*
X46338985Y-68542481D01*
X46245853Y-68403100D01*
X46181703Y-68248228D01*
X46149000Y-68083816D01*
X46149000Y-67916184D01*
X46181703Y-67751772D01*
X46245853Y-67596900D01*
X46338985Y-67457519D01*
X46457519Y-67338985D01*
X46596900Y-67245853D01*
X46751772Y-67181703D01*
X46916184Y-67149000D01*
X47083816Y-67149000D01*
X47248228Y-67181703D01*
X47248228Y-67181703D01*
G37*
G36*
X68786823Y-66861313D02*
G01*
X68947242Y-66909976D01*
X69079906Y-66980886D01*
X69095078Y-66988996D01*
X69224659Y-67095341D01*
X69331004Y-67224922D01*
X69331005Y-67224924D01*
X69410024Y-67372758D01*
X69458687Y-67533177D01*
X69475117Y-67700000D01*
X69458687Y-67866823D01*
X69410024Y-68027242D01*
X69339114Y-68159906D01*
X69331004Y-68175078D01*
X69224659Y-68304659D01*
X69095078Y-68411004D01*
X69095076Y-68411005D01*
X68947242Y-68490024D01*
X68786823Y-68538687D01*
X68661804Y-68551000D01*
X68578196Y-68551000D01*
X68453177Y-68538687D01*
X68292758Y-68490024D01*
X68144924Y-68411005D01*
X68144922Y-68411004D01*
X68015341Y-68304659D01*
X67908996Y-68175078D01*
X67900886Y-68159906D01*
X67829976Y-68027242D01*
X67781313Y-67866823D01*
X67764883Y-67700000D01*
X67781313Y-67533177D01*
X67829976Y-67372758D01*
X67908995Y-67224924D01*
X67908996Y-67224922D01*
X68015341Y-67095341D01*
X68144922Y-66988996D01*
X68160094Y-66980886D01*
X68292758Y-66909976D01*
X68453177Y-66861313D01*
X68578196Y-66849000D01*
X68661804Y-66849000D01*
X68786823Y-66861313D01*
X68786823Y-66861313D01*
G37*
G36*
X61166823Y-66861313D02*
G01*
X61327242Y-66909976D01*
X61459906Y-66980886D01*
X61475078Y-66988996D01*
X61604659Y-67095341D01*
X61711004Y-67224922D01*
X61711005Y-67224924D01*
X61790024Y-67372758D01*
X61838687Y-67533177D01*
X61855117Y-67700000D01*
X61838687Y-67866823D01*
X61790024Y-68027242D01*
X61719114Y-68159906D01*
X61711004Y-68175078D01*
X61604659Y-68304659D01*
X61475078Y-68411004D01*
X61475076Y-68411005D01*
X61327242Y-68490024D01*
X61166823Y-68538687D01*
X61041804Y-68551000D01*
X60958196Y-68551000D01*
X60833177Y-68538687D01*
X60672758Y-68490024D01*
X60524924Y-68411005D01*
X60524922Y-68411004D01*
X60395341Y-68304659D01*
X60288996Y-68175078D01*
X60280886Y-68159906D01*
X60209976Y-68027242D01*
X60161313Y-67866823D01*
X60144883Y-67700000D01*
X60161313Y-67533177D01*
X60209976Y-67372758D01*
X60288995Y-67224924D01*
X60288996Y-67224922D01*
X60395341Y-67095341D01*
X60524922Y-66988996D01*
X60540094Y-66980886D01*
X60672758Y-66909976D01*
X60833177Y-66861313D01*
X60958196Y-66849000D01*
X61041804Y-66849000D01*
X61166823Y-66861313D01*
X61166823Y-66861313D01*
G37*
G36*
X61166823Y-64321313D02*
G01*
X61327242Y-64369976D01*
X61459906Y-64440886D01*
X61475078Y-64448996D01*
X61604659Y-64555341D01*
X61711004Y-64684922D01*
X61711005Y-64684924D01*
X61790024Y-64832758D01*
X61838687Y-64993177D01*
X61855117Y-65160000D01*
X61838687Y-65326823D01*
X61790024Y-65487242D01*
X61760498Y-65542481D01*
X61711004Y-65635078D01*
X61604659Y-65764659D01*
X61475078Y-65871004D01*
X61475076Y-65871005D01*
X61327242Y-65950024D01*
X61166823Y-65998687D01*
X61041804Y-66011000D01*
X60958196Y-66011000D01*
X60833177Y-65998687D01*
X60672758Y-65950024D01*
X60524924Y-65871005D01*
X60524922Y-65871004D01*
X60395341Y-65764659D01*
X60288996Y-65635078D01*
X60239502Y-65542481D01*
X60209976Y-65487242D01*
X60161313Y-65326823D01*
X60144883Y-65160000D01*
X60161313Y-64993177D01*
X60209976Y-64832758D01*
X60288995Y-64684924D01*
X60288996Y-64684922D01*
X60395341Y-64555341D01*
X60524922Y-64448996D01*
X60540094Y-64440886D01*
X60672758Y-64369976D01*
X60833177Y-64321313D01*
X60958196Y-64309000D01*
X61041804Y-64309000D01*
X61166823Y-64321313D01*
X61166823Y-64321313D01*
G37*
G36*
X68786823Y-64321313D02*
G01*
X68947242Y-64369976D01*
X69079906Y-64440886D01*
X69095078Y-64448996D01*
X69224659Y-64555341D01*
X69331004Y-64684922D01*
X69331005Y-64684924D01*
X69410024Y-64832758D01*
X69458687Y-64993177D01*
X69475117Y-65160000D01*
X69458687Y-65326823D01*
X69410024Y-65487242D01*
X69380498Y-65542481D01*
X69331004Y-65635078D01*
X69224659Y-65764659D01*
X69095078Y-65871004D01*
X69095076Y-65871005D01*
X68947242Y-65950024D01*
X68786823Y-65998687D01*
X68661804Y-66011000D01*
X68578196Y-66011000D01*
X68453177Y-65998687D01*
X68292758Y-65950024D01*
X68144924Y-65871005D01*
X68144922Y-65871004D01*
X68015341Y-65764659D01*
X67908996Y-65635078D01*
X67859502Y-65542481D01*
X67829976Y-65487242D01*
X67781313Y-65326823D01*
X67764883Y-65160000D01*
X67781313Y-64993177D01*
X67829976Y-64832758D01*
X67908995Y-64684924D01*
X67908996Y-64684922D01*
X68015341Y-64555341D01*
X68144922Y-64448996D01*
X68160094Y-64440886D01*
X68292758Y-64369976D01*
X68453177Y-64321313D01*
X68578196Y-64309000D01*
X68661804Y-64309000D01*
X68786823Y-64321313D01*
X68786823Y-64321313D01*
G37*
G36*
X96248228Y-64181703D02*
G01*
X96403100Y-64245853D01*
X96542481Y-64338985D01*
X96661015Y-64457519D01*
X96754147Y-64596900D01*
X96818297Y-64751772D01*
X96851000Y-64916184D01*
X96851000Y-65083816D01*
X96818297Y-65248228D01*
X96754147Y-65403100D01*
X96661015Y-65542481D01*
X96542481Y-65661015D01*
X96403100Y-65754147D01*
X96248228Y-65818297D01*
X96083816Y-65851000D01*
X95916184Y-65851000D01*
X95751772Y-65818297D01*
X95596900Y-65754147D01*
X95457519Y-65661015D01*
X95338985Y-65542481D01*
X95245853Y-65403100D01*
X95181703Y-65248228D01*
X95149000Y-65083816D01*
X95149000Y-64916184D01*
X95181703Y-64751772D01*
X95245853Y-64596900D01*
X95338985Y-64457519D01*
X95457519Y-64338985D01*
X95596900Y-64245853D01*
X95751772Y-64181703D01*
X95916184Y-64149000D01*
X96083816Y-64149000D01*
X96248228Y-64181703D01*
X96248228Y-64181703D01*
G37*
G36*
X98748228Y-64181703D02*
G01*
X98903100Y-64245853D01*
X99042481Y-64338985D01*
X99161015Y-64457519D01*
X99254147Y-64596900D01*
X99318297Y-64751772D01*
X99351000Y-64916184D01*
X99351000Y-65083816D01*
X99318297Y-65248228D01*
X99254147Y-65403100D01*
X99161015Y-65542481D01*
X99042481Y-65661015D01*
X98903100Y-65754147D01*
X98748228Y-65818297D01*
X98583816Y-65851000D01*
X98416184Y-65851000D01*
X98251772Y-65818297D01*
X98096900Y-65754147D01*
X97957519Y-65661015D01*
X97838985Y-65542481D01*
X97745853Y-65403100D01*
X97681703Y-65248228D01*
X97649000Y-65083816D01*
X97649000Y-64916184D01*
X97681703Y-64751772D01*
X97745853Y-64596900D01*
X97838985Y-64457519D01*
X97957519Y-64338985D01*
X98096900Y-64245853D01*
X98251772Y-64181703D01*
X98416184Y-64149000D01*
X98583816Y-64149000D01*
X98748228Y-64181703D01*
X98748228Y-64181703D01*
G37*
G36*
X90248228Y-64181703D02*
G01*
X90403100Y-64245853D01*
X90542481Y-64338985D01*
X90661015Y-64457519D01*
X90754147Y-64596900D01*
X90818297Y-64751772D01*
X90851000Y-64916184D01*
X90851000Y-65083816D01*
X90818297Y-65248228D01*
X90754147Y-65403100D01*
X90661015Y-65542481D01*
X90542481Y-65661015D01*
X90403100Y-65754147D01*
X90248228Y-65818297D01*
X90083816Y-65851000D01*
X89916184Y-65851000D01*
X89751772Y-65818297D01*
X89596900Y-65754147D01*
X89457519Y-65661015D01*
X89338985Y-65542481D01*
X89245853Y-65403100D01*
X89181703Y-65248228D01*
X89149000Y-65083816D01*
X89149000Y-64916184D01*
X89181703Y-64751772D01*
X89245853Y-64596900D01*
X89338985Y-64457519D01*
X89457519Y-64338985D01*
X89596900Y-64245853D01*
X89751772Y-64181703D01*
X89916184Y-64149000D01*
X90083816Y-64149000D01*
X90248228Y-64181703D01*
X90248228Y-64181703D01*
G37*
G36*
X92748228Y-64181703D02*
G01*
X92903100Y-64245853D01*
X93042481Y-64338985D01*
X93161015Y-64457519D01*
X93254147Y-64596900D01*
X93318297Y-64751772D01*
X93351000Y-64916184D01*
X93351000Y-65083816D01*
X93318297Y-65248228D01*
X93254147Y-65403100D01*
X93161015Y-65542481D01*
X93042481Y-65661015D01*
X92903100Y-65754147D01*
X92748228Y-65818297D01*
X92583816Y-65851000D01*
X92416184Y-65851000D01*
X92251772Y-65818297D01*
X92096900Y-65754147D01*
X91957519Y-65661015D01*
X91838985Y-65542481D01*
X91745853Y-65403100D01*
X91681703Y-65248228D01*
X91649000Y-65083816D01*
X91649000Y-64916184D01*
X91681703Y-64751772D01*
X91745853Y-64596900D01*
X91838985Y-64457519D01*
X91957519Y-64338985D01*
X92096900Y-64245853D01*
X92251772Y-64181703D01*
X92416184Y-64149000D01*
X92583816Y-64149000D01*
X92748228Y-64181703D01*
X92748228Y-64181703D01*
G37*
G36*
X53851000Y-64851000D02*
G01*
X52149000Y-64851000D01*
X52149000Y-63149000D01*
X53851000Y-63149000D01*
X53851000Y-64851000D01*
X53851000Y-64851000D01*
G37*
G36*
X55248228Y-63181703D02*
G01*
X55403100Y-63245853D01*
X55542481Y-63338985D01*
X55661015Y-63457519D01*
X55754147Y-63596900D01*
X55818297Y-63751772D01*
X55851000Y-63916184D01*
X55851000Y-64083816D01*
X55818297Y-64248228D01*
X55754147Y-64403100D01*
X55661015Y-64542481D01*
X55542481Y-64661015D01*
X55403100Y-64754147D01*
X55248228Y-64818297D01*
X55083816Y-64851000D01*
X54916184Y-64851000D01*
X54751772Y-64818297D01*
X54596900Y-64754147D01*
X54457519Y-64661015D01*
X54338985Y-64542481D01*
X54245853Y-64403100D01*
X54181703Y-64248228D01*
X54149000Y-64083816D01*
X54149000Y-63916184D01*
X54181703Y-63751772D01*
X54245853Y-63596900D01*
X54338985Y-63457519D01*
X54457519Y-63338985D01*
X54596900Y-63245853D01*
X54751772Y-63181703D01*
X54916184Y-63149000D01*
X55083816Y-63149000D01*
X55248228Y-63181703D01*
X55248228Y-63181703D01*
G37*
G36*
X46151000Y-64151000D02*
G01*
X43849000Y-64151000D01*
X43849000Y-61849000D01*
X46151000Y-61849000D01*
X46151000Y-64151000D01*
X46151000Y-64151000D01*
G37*
G36*
X61166823Y-61781313D02*
G01*
X61327242Y-61829976D01*
X61362833Y-61849000D01*
X61475078Y-61908996D01*
X61604659Y-62015341D01*
X61711004Y-62144922D01*
X61711005Y-62144924D01*
X61790024Y-62292758D01*
X61838687Y-62453177D01*
X61855117Y-62620000D01*
X61838687Y-62786823D01*
X61790024Y-62947242D01*
X61719114Y-63079906D01*
X61711004Y-63095078D01*
X61604659Y-63224659D01*
X61475078Y-63331004D01*
X61475076Y-63331005D01*
X61327242Y-63410024D01*
X61166823Y-63458687D01*
X61041804Y-63471000D01*
X60958196Y-63471000D01*
X60833177Y-63458687D01*
X60672758Y-63410024D01*
X60524924Y-63331005D01*
X60524922Y-63331004D01*
X60395341Y-63224659D01*
X60288996Y-63095078D01*
X60280886Y-63079906D01*
X60209976Y-62947242D01*
X60161313Y-62786823D01*
X60144883Y-62620000D01*
X60161313Y-62453177D01*
X60209976Y-62292758D01*
X60288995Y-62144924D01*
X60288996Y-62144922D01*
X60395341Y-62015341D01*
X60524922Y-61908996D01*
X60637167Y-61849000D01*
X60672758Y-61829976D01*
X60833177Y-61781313D01*
X60958196Y-61769000D01*
X61041804Y-61769000D01*
X61166823Y-61781313D01*
X61166823Y-61781313D01*
G37*
G36*
X68786823Y-61781313D02*
G01*
X68947242Y-61829976D01*
X68982833Y-61849000D01*
X69095078Y-61908996D01*
X69224659Y-62015341D01*
X69331004Y-62144922D01*
X69331005Y-62144924D01*
X69410024Y-62292758D01*
X69458687Y-62453177D01*
X69475117Y-62620000D01*
X69458687Y-62786823D01*
X69410024Y-62947242D01*
X69339114Y-63079906D01*
X69331004Y-63095078D01*
X69224659Y-63224659D01*
X69095078Y-63331004D01*
X69095076Y-63331005D01*
X68947242Y-63410024D01*
X68786823Y-63458687D01*
X68661804Y-63471000D01*
X68578196Y-63471000D01*
X68453177Y-63458687D01*
X68292758Y-63410024D01*
X68144924Y-63331005D01*
X68144922Y-63331004D01*
X68015341Y-63224659D01*
X67908996Y-63095078D01*
X67900886Y-63079906D01*
X67829976Y-62947242D01*
X67781313Y-62786823D01*
X67764883Y-62620000D01*
X67781313Y-62453177D01*
X67829976Y-62292758D01*
X67908995Y-62144924D01*
X67908996Y-62144922D01*
X68015341Y-62015341D01*
X68144922Y-61908996D01*
X68257167Y-61849000D01*
X68292758Y-61829976D01*
X68453177Y-61781313D01*
X68578196Y-61769000D01*
X68661804Y-61769000D01*
X68786823Y-61781313D01*
X68786823Y-61781313D01*
G37*
G36*
X68786823Y-59241313D02*
G01*
X68947242Y-59289976D01*
X69079906Y-59360886D01*
X69095078Y-59368996D01*
X69224659Y-59475341D01*
X69331004Y-59604922D01*
X69331005Y-59604924D01*
X69410024Y-59752758D01*
X69458687Y-59913177D01*
X69475117Y-60080000D01*
X69458687Y-60246823D01*
X69410024Y-60407242D01*
X69339114Y-60539906D01*
X69331004Y-60555078D01*
X69224659Y-60684659D01*
X69095078Y-60791004D01*
X69095076Y-60791005D01*
X68947242Y-60870024D01*
X68786823Y-60918687D01*
X68661804Y-60931000D01*
X68578196Y-60931000D01*
X68453177Y-60918687D01*
X68292758Y-60870024D01*
X68144924Y-60791005D01*
X68144922Y-60791004D01*
X68015341Y-60684659D01*
X67908996Y-60555078D01*
X67900886Y-60539906D01*
X67829976Y-60407242D01*
X67781313Y-60246823D01*
X67764883Y-60080000D01*
X67781313Y-59913177D01*
X67829976Y-59752758D01*
X67908995Y-59604924D01*
X67908996Y-59604922D01*
X68015341Y-59475341D01*
X68144922Y-59368996D01*
X68160094Y-59360886D01*
X68292758Y-59289976D01*
X68453177Y-59241313D01*
X68578196Y-59229000D01*
X68661804Y-59229000D01*
X68786823Y-59241313D01*
X68786823Y-59241313D01*
G37*
G36*
X61166823Y-59241313D02*
G01*
X61327242Y-59289976D01*
X61459906Y-59360886D01*
X61475078Y-59368996D01*
X61604659Y-59475341D01*
X61711004Y-59604922D01*
X61711005Y-59604924D01*
X61790024Y-59752758D01*
X61838687Y-59913177D01*
X61855117Y-60080000D01*
X61838687Y-60246823D01*
X61790024Y-60407242D01*
X61719114Y-60539906D01*
X61711004Y-60555078D01*
X61604659Y-60684659D01*
X61475078Y-60791004D01*
X61475076Y-60791005D01*
X61327242Y-60870024D01*
X61166823Y-60918687D01*
X61041804Y-60931000D01*
X60958196Y-60931000D01*
X60833177Y-60918687D01*
X60672758Y-60870024D01*
X60524924Y-60791005D01*
X60524922Y-60791004D01*
X60395341Y-60684659D01*
X60288996Y-60555078D01*
X60280886Y-60539906D01*
X60209976Y-60407242D01*
X60161313Y-60246823D01*
X60144883Y-60080000D01*
X60161313Y-59913177D01*
X60209976Y-59752758D01*
X60288995Y-59604924D01*
X60288996Y-59604922D01*
X60395341Y-59475341D01*
X60524922Y-59368996D01*
X60540094Y-59360886D01*
X60672758Y-59289976D01*
X60833177Y-59241313D01*
X60958196Y-59229000D01*
X61041804Y-59229000D01*
X61166823Y-59241313D01*
X61166823Y-59241313D01*
G37*
G36*
X74248228Y-58181703D02*
G01*
X74403100Y-58245853D01*
X74542481Y-58338985D01*
X74661015Y-58457519D01*
X74754147Y-58596900D01*
X74818297Y-58751772D01*
X74851000Y-58916184D01*
X74851000Y-59083816D01*
X74818297Y-59248228D01*
X74754147Y-59403100D01*
X74661015Y-59542481D01*
X74542481Y-59661015D01*
X74403100Y-59754147D01*
X74248228Y-59818297D01*
X74083816Y-59851000D01*
X73916184Y-59851000D01*
X73751772Y-59818297D01*
X73596900Y-59754147D01*
X73457519Y-59661015D01*
X73338985Y-59542481D01*
X73245853Y-59403100D01*
X73181703Y-59248228D01*
X73149000Y-59083816D01*
X73149000Y-58916184D01*
X73181703Y-58751772D01*
X73245853Y-58596900D01*
X73338985Y-58457519D01*
X73457519Y-58338985D01*
X73596900Y-58245853D01*
X73751772Y-58181703D01*
X73916184Y-58149000D01*
X74083816Y-58149000D01*
X74248228Y-58181703D01*
X74248228Y-58181703D01*
G37*
G36*
X82248228Y-58181703D02*
G01*
X82403100Y-58245853D01*
X82542481Y-58338985D01*
X82661015Y-58457519D01*
X82754147Y-58596900D01*
X82818297Y-58751772D01*
X82851000Y-58916184D01*
X82851000Y-59083816D01*
X82818297Y-59248228D01*
X82754147Y-59403100D01*
X82661015Y-59542481D01*
X82542481Y-59661015D01*
X82403100Y-59754147D01*
X82248228Y-59818297D01*
X82083816Y-59851000D01*
X81916184Y-59851000D01*
X81751772Y-59818297D01*
X81596900Y-59754147D01*
X81457519Y-59661015D01*
X81338985Y-59542481D01*
X81245853Y-59403100D01*
X81181703Y-59248228D01*
X81149000Y-59083816D01*
X81149000Y-58916184D01*
X81181703Y-58751772D01*
X81245853Y-58596900D01*
X81338985Y-58457519D01*
X81457519Y-58338985D01*
X81596900Y-58245853D01*
X81751772Y-58181703D01*
X81916184Y-58149000D01*
X82083816Y-58149000D01*
X82248228Y-58181703D01*
X82248228Y-58181703D01*
G37*
G36*
X96276719Y-56963520D02*
G01*
X96465880Y-57020901D01*
X96465883Y-57020902D01*
X96548238Y-57064922D01*
X96640212Y-57114083D01*
X96793015Y-57239485D01*
X96918417Y-57392288D01*
X97011599Y-57566619D01*
X97068980Y-57755780D01*
X97083500Y-57903206D01*
X97083500Y-58096793D01*
X97068980Y-58244219D01*
X97042951Y-58330025D01*
X97011598Y-58433383D01*
X96998696Y-58457520D01*
X96918417Y-58607712D01*
X96793015Y-58760515D01*
X96640212Y-58885917D01*
X96465881Y-58979099D01*
X96276720Y-59036480D01*
X96080000Y-59055855D01*
X95883281Y-59036480D01*
X95694120Y-58979099D01*
X95519788Y-58885917D01*
X95366985Y-58760515D01*
X95241583Y-58607712D01*
X95148401Y-58433381D01*
X95091020Y-58244220D01*
X95076500Y-58096794D01*
X95076500Y-57903207D01*
X95091020Y-57755781D01*
X95148401Y-57566620D01*
X95148402Y-57566617D01*
X95235804Y-57403100D01*
X95241583Y-57392288D01*
X95366985Y-57239485D01*
X95519788Y-57114083D01*
X95694119Y-57020901D01*
X95883280Y-56963520D01*
X96080000Y-56944145D01*
X96276719Y-56963520D01*
X96276719Y-56963520D01*
G37*
G36*
X93736719Y-56963520D02*
G01*
X93925880Y-57020901D01*
X93925883Y-57020902D01*
X94008238Y-57064922D01*
X94100212Y-57114083D01*
X94253015Y-57239485D01*
X94378417Y-57392288D01*
X94471599Y-57566619D01*
X94528980Y-57755780D01*
X94543500Y-57903206D01*
X94543500Y-58096793D01*
X94528980Y-58244219D01*
X94502951Y-58330025D01*
X94471598Y-58433383D01*
X94458696Y-58457520D01*
X94378417Y-58607712D01*
X94253015Y-58760515D01*
X94100212Y-58885917D01*
X93925881Y-58979099D01*
X93736720Y-59036480D01*
X93540000Y-59055855D01*
X93343281Y-59036480D01*
X93154120Y-58979099D01*
X92979788Y-58885917D01*
X92826985Y-58760515D01*
X92701583Y-58607712D01*
X92608401Y-58433381D01*
X92551020Y-58244220D01*
X92536500Y-58096794D01*
X92536500Y-57903207D01*
X92551020Y-57755781D01*
X92608401Y-57566620D01*
X92608402Y-57566617D01*
X92695804Y-57403100D01*
X92701583Y-57392288D01*
X92826985Y-57239485D01*
X92979788Y-57114083D01*
X93154119Y-57020901D01*
X93343280Y-56963520D01*
X93540000Y-56944145D01*
X93736719Y-56963520D01*
X93736719Y-56963520D01*
G37*
G36*
X92003500Y-59051000D02*
G01*
X89996500Y-59051000D01*
X89996500Y-56949000D01*
X92003500Y-56949000D01*
X92003500Y-59051000D01*
X92003500Y-59051000D01*
G37*
G36*
X61166823Y-56701313D02*
G01*
X61327242Y-56749976D01*
X61459906Y-56820886D01*
X61475078Y-56828996D01*
X61604659Y-56935341D01*
X61711004Y-57064922D01*
X61711005Y-57064924D01*
X61790024Y-57212758D01*
X61838687Y-57373177D01*
X61855117Y-57540000D01*
X61838687Y-57706823D01*
X61790024Y-57867242D01*
X61770800Y-57903207D01*
X61711004Y-58015078D01*
X61604659Y-58144659D01*
X61475078Y-58251004D01*
X61475076Y-58251005D01*
X61327242Y-58330024D01*
X61166823Y-58378687D01*
X61041804Y-58391000D01*
X60958196Y-58391000D01*
X60833177Y-58378687D01*
X60672758Y-58330024D01*
X60524924Y-58251005D01*
X60524922Y-58251004D01*
X60395341Y-58144659D01*
X60288996Y-58015078D01*
X60229200Y-57903207D01*
X60209976Y-57867242D01*
X60161313Y-57706823D01*
X60144883Y-57540000D01*
X60161313Y-57373177D01*
X60209976Y-57212758D01*
X60288995Y-57064924D01*
X60288996Y-57064922D01*
X60395341Y-56935341D01*
X60524922Y-56828996D01*
X60540094Y-56820886D01*
X60672758Y-56749976D01*
X60833177Y-56701313D01*
X60958196Y-56689000D01*
X61041804Y-56689000D01*
X61166823Y-56701313D01*
X61166823Y-56701313D01*
G37*
G36*
X68786823Y-56701313D02*
G01*
X68947242Y-56749976D01*
X69079906Y-56820886D01*
X69095078Y-56828996D01*
X69224659Y-56935341D01*
X69331004Y-57064922D01*
X69331005Y-57064924D01*
X69410024Y-57212758D01*
X69458687Y-57373177D01*
X69475117Y-57540000D01*
X69458687Y-57706823D01*
X69410024Y-57867242D01*
X69390800Y-57903207D01*
X69331004Y-58015078D01*
X69224659Y-58144659D01*
X69095078Y-58251004D01*
X69095076Y-58251005D01*
X68947242Y-58330024D01*
X68786823Y-58378687D01*
X68661804Y-58391000D01*
X68578196Y-58391000D01*
X68453177Y-58378687D01*
X68292758Y-58330024D01*
X68144924Y-58251005D01*
X68144922Y-58251004D01*
X68015341Y-58144659D01*
X67908996Y-58015078D01*
X67849200Y-57903207D01*
X67829976Y-57867242D01*
X67781313Y-57706823D01*
X67764883Y-57540000D01*
X67781313Y-57373177D01*
X67829976Y-57212758D01*
X67908995Y-57064924D01*
X67908996Y-57064922D01*
X68015341Y-56935341D01*
X68144922Y-56828996D01*
X68160094Y-56820886D01*
X68292758Y-56749976D01*
X68453177Y-56701313D01*
X68578196Y-56689000D01*
X68661804Y-56689000D01*
X68786823Y-56701313D01*
X68786823Y-56701313D01*
G37*
G36*
X102248228Y-56181703D02*
G01*
X102403100Y-56245853D01*
X102542481Y-56338985D01*
X102661015Y-56457519D01*
X102754147Y-56596900D01*
X102818297Y-56751772D01*
X102851000Y-56916184D01*
X102851000Y-57083816D01*
X102818297Y-57248228D01*
X102754147Y-57403100D01*
X102661015Y-57542481D01*
X102542481Y-57661015D01*
X102403100Y-57754147D01*
X102248228Y-57818297D01*
X102083816Y-57851000D01*
X101916184Y-57851000D01*
X101751772Y-57818297D01*
X101596900Y-57754147D01*
X101457519Y-57661015D01*
X101338985Y-57542481D01*
X101245853Y-57403100D01*
X101181703Y-57248228D01*
X101149000Y-57083816D01*
X101149000Y-56916184D01*
X101181703Y-56751772D01*
X101245853Y-56596900D01*
X101338985Y-56457519D01*
X101457519Y-56338985D01*
X101596900Y-56245853D01*
X101751772Y-56181703D01*
X101916184Y-56149000D01*
X102083816Y-56149000D01*
X102248228Y-56181703D01*
X102248228Y-56181703D01*
G37*
G36*
X104851000Y-57851000D02*
G01*
X103149000Y-57851000D01*
X103149000Y-56149000D01*
X104851000Y-56149000D01*
X104851000Y-57851000D01*
X104851000Y-57851000D01*
G37*
G36*
X54851000Y-56851000D02*
G01*
X53149000Y-56851000D01*
X53149000Y-55149000D01*
X54851000Y-55149000D01*
X54851000Y-56851000D01*
X54851000Y-56851000D01*
G37*
G36*
X45169271Y-54240103D02*
G01*
X45225635Y-54245654D01*
X45442600Y-54311470D01*
X45442602Y-54311471D01*
X45642555Y-54418347D01*
X45817818Y-54562182D01*
X45961653Y-54737445D01*
X46068529Y-54937398D01*
X46068530Y-54937400D01*
X46134346Y-55154365D01*
X46156569Y-55380000D01*
X46134346Y-55605635D01*
X46078412Y-55790025D01*
X46068529Y-55822602D01*
X45961653Y-56022555D01*
X45817818Y-56197818D01*
X45642555Y-56341653D01*
X45442602Y-56448529D01*
X45442600Y-56448530D01*
X45225635Y-56514346D01*
X45169271Y-56519897D01*
X45056545Y-56531000D01*
X44943455Y-56531000D01*
X44830729Y-56519897D01*
X44774365Y-56514346D01*
X44557400Y-56448530D01*
X44557398Y-56448529D01*
X44357445Y-56341653D01*
X44182182Y-56197818D01*
X44038347Y-56022555D01*
X43931471Y-55822602D01*
X43921589Y-55790025D01*
X43865654Y-55605635D01*
X43843431Y-55380000D01*
X43865654Y-55154365D01*
X43931470Y-54937400D01*
X43931471Y-54937398D01*
X44038347Y-54737445D01*
X44182182Y-54562182D01*
X44357445Y-54418347D01*
X44557398Y-54311471D01*
X44557400Y-54311470D01*
X44774365Y-54245654D01*
X44830729Y-54240103D01*
X44943455Y-54229000D01*
X45056545Y-54229000D01*
X45169271Y-54240103D01*
X45169271Y-54240103D01*
G37*
G36*
X61851000Y-55851000D02*
G01*
X60149000Y-55851000D01*
X60149000Y-54149000D01*
X61851000Y-54149000D01*
X61851000Y-55851000D01*
X61851000Y-55851000D01*
G37*
G36*
X68786823Y-54161313D02*
G01*
X68947242Y-54209976D01*
X69014361Y-54245852D01*
X69095078Y-54288996D01*
X69224659Y-54395341D01*
X69331004Y-54524922D01*
X69331005Y-54524924D01*
X69410024Y-54672758D01*
X69458687Y-54833177D01*
X69475117Y-55000000D01*
X69458687Y-55166823D01*
X69410024Y-55327242D01*
X69369477Y-55403100D01*
X69331004Y-55475078D01*
X69224659Y-55604659D01*
X69095078Y-55711004D01*
X69095076Y-55711005D01*
X68947242Y-55790024D01*
X68786823Y-55838687D01*
X68661804Y-55851000D01*
X68578196Y-55851000D01*
X68453177Y-55838687D01*
X68292758Y-55790024D01*
X68144924Y-55711005D01*
X68144922Y-55711004D01*
X68015341Y-55604659D01*
X67908996Y-55475078D01*
X67870523Y-55403100D01*
X67829976Y-55327242D01*
X67781313Y-55166823D01*
X67764883Y-55000000D01*
X67781313Y-54833177D01*
X67829976Y-54672758D01*
X67908995Y-54524924D01*
X67908996Y-54524922D01*
X68015341Y-54395341D01*
X68144922Y-54288996D01*
X68225639Y-54245852D01*
X68292758Y-54209976D01*
X68453177Y-54161313D01*
X68578196Y-54149000D01*
X68661804Y-54149000D01*
X68786823Y-54161313D01*
X68786823Y-54161313D01*
G37*
G36*
X73248228Y-54181703D02*
G01*
X73403100Y-54245853D01*
X73542481Y-54338985D01*
X73661015Y-54457519D01*
X73754147Y-54596900D01*
X73818297Y-54751772D01*
X73851000Y-54916184D01*
X73851000Y-55083816D01*
X73818297Y-55248228D01*
X73754147Y-55403100D01*
X73661015Y-55542481D01*
X73542481Y-55661015D01*
X73403100Y-55754147D01*
X73248228Y-55818297D01*
X73083816Y-55851000D01*
X72916184Y-55851000D01*
X72751772Y-55818297D01*
X72596900Y-55754147D01*
X72457519Y-55661015D01*
X72338985Y-55542481D01*
X72245853Y-55403100D01*
X72181703Y-55248228D01*
X72149000Y-55083816D01*
X72149000Y-54916184D01*
X72181703Y-54751772D01*
X72245853Y-54596900D01*
X72338985Y-54457519D01*
X72457519Y-54338985D01*
X72596900Y-54245853D01*
X72751772Y-54181703D01*
X72916184Y-54149000D01*
X73083816Y-54149000D01*
X73248228Y-54181703D01*
X73248228Y-54181703D01*
G37*
G36*
X83326823Y-54161313D02*
G01*
X83487242Y-54209976D01*
X83554361Y-54245852D01*
X83635078Y-54288996D01*
X83764659Y-54395341D01*
X83871004Y-54524922D01*
X83871005Y-54524924D01*
X83950024Y-54672758D01*
X83998687Y-54833177D01*
X84015117Y-55000000D01*
X83998687Y-55166823D01*
X83950024Y-55327242D01*
X83909477Y-55403100D01*
X83871004Y-55475078D01*
X83764659Y-55604659D01*
X83635078Y-55711004D01*
X83635076Y-55711005D01*
X83487242Y-55790024D01*
X83326823Y-55838687D01*
X83201804Y-55851000D01*
X83118196Y-55851000D01*
X82993177Y-55838687D01*
X82832758Y-55790024D01*
X82684924Y-55711005D01*
X82684922Y-55711004D01*
X82555341Y-55604659D01*
X82448996Y-55475078D01*
X82410523Y-55403100D01*
X82369976Y-55327242D01*
X82321313Y-55166823D01*
X82304883Y-55000000D01*
X82321313Y-54833177D01*
X82369976Y-54672758D01*
X82448995Y-54524924D01*
X82448996Y-54524922D01*
X82555341Y-54395341D01*
X82684922Y-54288996D01*
X82765639Y-54245852D01*
X82832758Y-54209976D01*
X82993177Y-54161313D01*
X83118196Y-54149000D01*
X83201804Y-54149000D01*
X83326823Y-54161313D01*
X83326823Y-54161313D01*
G37*
G36*
X54248228Y-53181703D02*
G01*
X54403100Y-53245853D01*
X54542481Y-53338985D01*
X54661015Y-53457519D01*
X54754147Y-53596900D01*
X54818297Y-53751772D01*
X54851000Y-53916184D01*
X54851000Y-54083816D01*
X54818297Y-54248228D01*
X54754147Y-54403100D01*
X54661015Y-54542481D01*
X54542481Y-54661015D01*
X54403100Y-54754147D01*
X54248228Y-54818297D01*
X54083816Y-54851000D01*
X53916184Y-54851000D01*
X53751772Y-54818297D01*
X53596900Y-54754147D01*
X53457519Y-54661015D01*
X53338985Y-54542481D01*
X53245853Y-54403100D01*
X53181703Y-54248228D01*
X53149000Y-54083816D01*
X53149000Y-53916184D01*
X53181703Y-53751772D01*
X53245853Y-53596900D01*
X53338985Y-53457519D01*
X53457519Y-53338985D01*
X53596900Y-53245853D01*
X53751772Y-53181703D01*
X53916184Y-53149000D01*
X54083816Y-53149000D01*
X54248228Y-53181703D01*
X54248228Y-53181703D01*
G37*
M02*
