G04 #@! TF.GenerationSoftware,KiCad,Pcbnew,(5.1.2)-2*
G04 #@! TF.CreationDate,2019-09-19T14:38:40-05:00*
G04 #@! TF.ProjectId,PWM-H-Bridge,50574d2d-482d-4427-9269-6467652e6b69,rev?*
G04 #@! TF.SameCoordinates,Original*
G04 #@! TF.FileFunction,Legend,Bot*
G04 #@! TF.FilePolarity,Positive*
%FSLAX46Y46*%
G04 Gerber Fmt 4.6, Leading zero omitted, Abs format (unit mm)*
G04 Created by KiCad (PCBNEW (5.1.2)-2) date 2019-09-19 14:38:40*
%MOMM*%
%LPD*%
G04 APERTURE LIST*
%ADD10C,0.150000*%
%ADD11C,0.200000*%
G04 APERTURE END LIST*
D10*
X109307261Y-61127380D02*
X108735833Y-61127380D01*
X109021547Y-62127380D02*
X109021547Y-61127380D01*
X108402500Y-62127380D02*
X108402500Y-61127380D01*
X107973928Y-62127380D02*
X107973928Y-61603571D01*
X108021547Y-61508333D01*
X108116785Y-61460714D01*
X108259642Y-61460714D01*
X108354880Y-61508333D01*
X108402500Y-61555952D01*
X107497738Y-62127380D02*
X107497738Y-61460714D01*
X107497738Y-61127380D02*
X107545357Y-61175000D01*
X107497738Y-61222619D01*
X107450119Y-61175000D01*
X107497738Y-61127380D01*
X107497738Y-61222619D01*
X107069166Y-62079761D02*
X106973928Y-62127380D01*
X106783452Y-62127380D01*
X106688214Y-62079761D01*
X106640595Y-61984523D01*
X106640595Y-61936904D01*
X106688214Y-61841666D01*
X106783452Y-61794047D01*
X106926309Y-61794047D01*
X107021547Y-61746428D01*
X107069166Y-61651190D01*
X107069166Y-61603571D01*
X107021547Y-61508333D01*
X106926309Y-61460714D01*
X106783452Y-61460714D01*
X106688214Y-61508333D01*
X105450119Y-62127380D02*
X105450119Y-61460714D01*
X105450119Y-61127380D02*
X105497738Y-61175000D01*
X105450119Y-61222619D01*
X105402500Y-61175000D01*
X105450119Y-61127380D01*
X105450119Y-61222619D01*
X105021547Y-62079761D02*
X104926309Y-62127380D01*
X104735833Y-62127380D01*
X104640595Y-62079761D01*
X104592976Y-61984523D01*
X104592976Y-61936904D01*
X104640595Y-61841666D01*
X104735833Y-61794047D01*
X104878690Y-61794047D01*
X104973928Y-61746428D01*
X105021547Y-61651190D01*
X105021547Y-61603571D01*
X104973928Y-61508333D01*
X104878690Y-61460714D01*
X104735833Y-61460714D01*
X104640595Y-61508333D01*
X103545357Y-61460714D02*
X103164404Y-61460714D01*
X103402500Y-61127380D02*
X103402500Y-61984523D01*
X103354880Y-62079761D01*
X103259642Y-62127380D01*
X103164404Y-62127380D01*
X102831071Y-62127380D02*
X102831071Y-61127380D01*
X102402500Y-62127380D02*
X102402500Y-61603571D01*
X102450119Y-61508333D01*
X102545357Y-61460714D01*
X102688214Y-61460714D01*
X102783452Y-61508333D01*
X102831071Y-61555952D01*
X101545357Y-62079761D02*
X101640595Y-62127380D01*
X101831071Y-62127380D01*
X101926309Y-62079761D01*
X101973928Y-61984523D01*
X101973928Y-61603571D01*
X101926309Y-61508333D01*
X101831071Y-61460714D01*
X101640595Y-61460714D01*
X101545357Y-61508333D01*
X101497738Y-61603571D01*
X101497738Y-61698809D01*
X101973928Y-61794047D01*
X100450119Y-61460714D02*
X100069166Y-61460714D01*
X100307261Y-61127380D02*
X100307261Y-61984523D01*
X100259642Y-62079761D01*
X100164404Y-62127380D01*
X100069166Y-62127380D01*
X99735833Y-62127380D02*
X99735833Y-61460714D01*
X99735833Y-61651190D02*
X99688214Y-61555952D01*
X99640595Y-61508333D01*
X99545357Y-61460714D01*
X99450119Y-61460714D01*
X98688214Y-62127380D02*
X98688214Y-61603571D01*
X98735833Y-61508333D01*
X98831071Y-61460714D01*
X99021547Y-61460714D01*
X99116785Y-61508333D01*
X98688214Y-62079761D02*
X98783452Y-62127380D01*
X99021547Y-62127380D01*
X99116785Y-62079761D01*
X99164404Y-61984523D01*
X99164404Y-61889285D01*
X99116785Y-61794047D01*
X99021547Y-61746428D01*
X98783452Y-61746428D01*
X98688214Y-61698809D01*
X98212023Y-61460714D02*
X98212023Y-62127380D01*
X98212023Y-61555952D02*
X98164404Y-61508333D01*
X98069166Y-61460714D01*
X97926309Y-61460714D01*
X97831071Y-61508333D01*
X97783452Y-61603571D01*
X97783452Y-62127380D01*
X97354880Y-62079761D02*
X97259642Y-62127380D01*
X97069166Y-62127380D01*
X96973928Y-62079761D01*
X96926309Y-61984523D01*
X96926309Y-61936904D01*
X96973928Y-61841666D01*
X97069166Y-61794047D01*
X97212023Y-61794047D01*
X97307261Y-61746428D01*
X97354880Y-61651190D01*
X97354880Y-61603571D01*
X97307261Y-61508333D01*
X97212023Y-61460714D01*
X97069166Y-61460714D01*
X96973928Y-61508333D01*
X96497738Y-62127380D02*
X96497738Y-61460714D01*
X96497738Y-61555952D02*
X96450119Y-61508333D01*
X96354880Y-61460714D01*
X96212023Y-61460714D01*
X96116785Y-61508333D01*
X96069166Y-61603571D01*
X96069166Y-62127380D01*
X96069166Y-61603571D02*
X96021547Y-61508333D01*
X95926309Y-61460714D01*
X95783452Y-61460714D01*
X95688214Y-61508333D01*
X95640595Y-61603571D01*
X95640595Y-62127380D01*
X95164404Y-62127380D02*
X95164404Y-61460714D01*
X95164404Y-61127380D02*
X95212023Y-61175000D01*
X95164404Y-61222619D01*
X95116785Y-61175000D01*
X95164404Y-61127380D01*
X95164404Y-61222619D01*
X94831071Y-61460714D02*
X94450119Y-61460714D01*
X94688214Y-61127380D02*
X94688214Y-61984523D01*
X94640595Y-62079761D01*
X94545357Y-62127380D01*
X94450119Y-62127380D01*
X94259642Y-61460714D02*
X93878690Y-61460714D01*
X94116785Y-61127380D02*
X94116785Y-61984523D01*
X94069166Y-62079761D01*
X93973928Y-62127380D01*
X93878690Y-62127380D01*
X93164404Y-62079761D02*
X93259642Y-62127380D01*
X93450119Y-62127380D01*
X93545357Y-62079761D01*
X93592976Y-61984523D01*
X93592976Y-61603571D01*
X93545357Y-61508333D01*
X93450119Y-61460714D01*
X93259642Y-61460714D01*
X93164404Y-61508333D01*
X93116785Y-61603571D01*
X93116785Y-61698809D01*
X93592976Y-61794047D01*
X92688214Y-62127380D02*
X92688214Y-61460714D01*
X92688214Y-61651190D02*
X92640595Y-61555952D01*
X92592976Y-61508333D01*
X92497738Y-61460714D01*
X92402500Y-61460714D01*
X91450119Y-61460714D02*
X91069166Y-61460714D01*
X91307261Y-62127380D02*
X91307261Y-61270238D01*
X91259642Y-61175000D01*
X91164404Y-61127380D01*
X91069166Y-61127380D01*
X90592976Y-62127380D02*
X90688214Y-62079761D01*
X90735833Y-62032142D01*
X90783452Y-61936904D01*
X90783452Y-61651190D01*
X90735833Y-61555952D01*
X90688214Y-61508333D01*
X90592976Y-61460714D01*
X90450119Y-61460714D01*
X90354880Y-61508333D01*
X90307261Y-61555952D01*
X90259642Y-61651190D01*
X90259642Y-61936904D01*
X90307261Y-62032142D01*
X90354880Y-62079761D01*
X90450119Y-62127380D01*
X90592976Y-62127380D01*
X89831071Y-62127380D02*
X89831071Y-61460714D01*
X89831071Y-61651190D02*
X89783452Y-61555952D01*
X89735833Y-61508333D01*
X89640595Y-61460714D01*
X89545357Y-61460714D01*
X88021547Y-62127380D02*
X88021547Y-61603571D01*
X88069166Y-61508333D01*
X88164404Y-61460714D01*
X88354880Y-61460714D01*
X88450119Y-61508333D01*
X88021547Y-62079761D02*
X88116785Y-62127380D01*
X88354880Y-62127380D01*
X88450119Y-62079761D01*
X88497738Y-61984523D01*
X88497738Y-61889285D01*
X88450119Y-61794047D01*
X88354880Y-61746428D01*
X88116785Y-61746428D01*
X88021547Y-61698809D01*
X87545357Y-61460714D02*
X87545357Y-62127380D01*
X87545357Y-61555952D02*
X87497738Y-61508333D01*
X87402500Y-61460714D01*
X87259642Y-61460714D01*
X87164404Y-61508333D01*
X87116785Y-61603571D01*
X87116785Y-62127380D01*
X85878690Y-62127380D02*
X85878690Y-61460714D01*
X85878690Y-61127380D02*
X85926309Y-61175000D01*
X85878690Y-61222619D01*
X85831071Y-61175000D01*
X85878690Y-61127380D01*
X85878690Y-61222619D01*
X85402500Y-61460714D02*
X85402500Y-62127380D01*
X85402500Y-61555952D02*
X85354880Y-61508333D01*
X85259642Y-61460714D01*
X85116785Y-61460714D01*
X85021547Y-61508333D01*
X84973928Y-61603571D01*
X84973928Y-62127380D01*
X84069166Y-62127380D02*
X84069166Y-61127380D01*
X84069166Y-62079761D02*
X84164404Y-62127380D01*
X84354880Y-62127380D01*
X84450119Y-62079761D01*
X84497738Y-62032142D01*
X84545357Y-61936904D01*
X84545357Y-61651190D01*
X84497738Y-61555952D01*
X84450119Y-61508333D01*
X84354880Y-61460714D01*
X84164404Y-61460714D01*
X84069166Y-61508333D01*
X83164404Y-61460714D02*
X83164404Y-62127380D01*
X83592976Y-61460714D02*
X83592976Y-61984523D01*
X83545357Y-62079761D01*
X83450119Y-62127380D01*
X83307261Y-62127380D01*
X83212023Y-62079761D01*
X83164404Y-62032142D01*
X82259642Y-62079761D02*
X82354880Y-62127380D01*
X82545357Y-62127380D01*
X82640595Y-62079761D01*
X82688214Y-62032142D01*
X82735833Y-61936904D01*
X82735833Y-61651190D01*
X82688214Y-61555952D01*
X82640595Y-61508333D01*
X82545357Y-61460714D01*
X82354880Y-61460714D01*
X82259642Y-61508333D01*
X81973928Y-61460714D02*
X81592976Y-61460714D01*
X81831071Y-61127380D02*
X81831071Y-61984523D01*
X81783452Y-62079761D01*
X81688214Y-62127380D01*
X81592976Y-62127380D01*
X81259642Y-62127380D02*
X81259642Y-61460714D01*
X81259642Y-61127380D02*
X81307261Y-61175000D01*
X81259642Y-61222619D01*
X81212023Y-61175000D01*
X81259642Y-61127380D01*
X81259642Y-61222619D01*
X80878690Y-61460714D02*
X80640595Y-62127380D01*
X80402500Y-61460714D01*
X79640595Y-62079761D02*
X79735833Y-62127380D01*
X79926309Y-62127380D01*
X80021547Y-62079761D01*
X80069166Y-61984523D01*
X80069166Y-61603571D01*
X80021547Y-61508333D01*
X79926309Y-61460714D01*
X79735833Y-61460714D01*
X79640595Y-61508333D01*
X79592976Y-61603571D01*
X79592976Y-61698809D01*
X80069166Y-61794047D01*
X78402500Y-61460714D02*
X78402500Y-62460714D01*
X78402500Y-61508333D02*
X78307261Y-61460714D01*
X78116785Y-61460714D01*
X78021547Y-61508333D01*
X77973928Y-61555952D01*
X77926309Y-61651190D01*
X77926309Y-61936904D01*
X77973928Y-62032142D01*
X78021547Y-62079761D01*
X78116785Y-62127380D01*
X78307261Y-62127380D01*
X78402500Y-62079761D01*
X77354880Y-62127380D02*
X77450119Y-62079761D01*
X77497738Y-62032142D01*
X77545357Y-61936904D01*
X77545357Y-61651190D01*
X77497738Y-61555952D01*
X77450119Y-61508333D01*
X77354880Y-61460714D01*
X77212023Y-61460714D01*
X77116785Y-61508333D01*
X77069166Y-61555952D01*
X77021547Y-61651190D01*
X77021547Y-61936904D01*
X77069166Y-62032142D01*
X77116785Y-62079761D01*
X77212023Y-62127380D01*
X77354880Y-62127380D01*
X76688214Y-61460714D02*
X76497738Y-62127380D01*
X76307261Y-61651190D01*
X76116785Y-62127380D01*
X75926309Y-61460714D01*
X75164404Y-62079761D02*
X75259642Y-62127380D01*
X75450119Y-62127380D01*
X75545357Y-62079761D01*
X75592976Y-61984523D01*
X75592976Y-61603571D01*
X75545357Y-61508333D01*
X75450119Y-61460714D01*
X75259642Y-61460714D01*
X75164404Y-61508333D01*
X75116785Y-61603571D01*
X75116785Y-61698809D01*
X75592976Y-61794047D01*
X74688214Y-62127380D02*
X74688214Y-61460714D01*
X74688214Y-61651190D02*
X74640595Y-61555952D01*
X74592976Y-61508333D01*
X74497738Y-61460714D01*
X74402500Y-61460714D01*
X109212023Y-63729761D02*
X109116785Y-63777380D01*
X108926309Y-63777380D01*
X108831071Y-63729761D01*
X108783452Y-63634523D01*
X108783452Y-63586904D01*
X108831071Y-63491666D01*
X108926309Y-63444047D01*
X109069166Y-63444047D01*
X109164404Y-63396428D01*
X109212023Y-63301190D01*
X109212023Y-63253571D01*
X109164404Y-63158333D01*
X109069166Y-63110714D01*
X108926309Y-63110714D01*
X108831071Y-63158333D01*
X108450119Y-63110714D02*
X108212023Y-63777380D01*
X107973928Y-63110714D02*
X108212023Y-63777380D01*
X108307261Y-64015476D01*
X108354880Y-64063095D01*
X108450119Y-64110714D01*
X107640595Y-63729761D02*
X107545357Y-63777380D01*
X107354880Y-63777380D01*
X107259642Y-63729761D01*
X107212023Y-63634523D01*
X107212023Y-63586904D01*
X107259642Y-63491666D01*
X107354880Y-63444047D01*
X107497738Y-63444047D01*
X107592976Y-63396428D01*
X107640595Y-63301190D01*
X107640595Y-63253571D01*
X107592976Y-63158333D01*
X107497738Y-63110714D01*
X107354880Y-63110714D01*
X107259642Y-63158333D01*
X106926309Y-63110714D02*
X106545357Y-63110714D01*
X106783452Y-62777380D02*
X106783452Y-63634523D01*
X106735833Y-63729761D01*
X106640595Y-63777380D01*
X106545357Y-63777380D01*
X105831071Y-63729761D02*
X105926309Y-63777380D01*
X106116785Y-63777380D01*
X106212023Y-63729761D01*
X106259642Y-63634523D01*
X106259642Y-63253571D01*
X106212023Y-63158333D01*
X106116785Y-63110714D01*
X105926309Y-63110714D01*
X105831071Y-63158333D01*
X105783452Y-63253571D01*
X105783452Y-63348809D01*
X106259642Y-63444047D01*
X105354880Y-63777380D02*
X105354880Y-63110714D01*
X105354880Y-63205952D02*
X105307261Y-63158333D01*
X105212023Y-63110714D01*
X105069166Y-63110714D01*
X104973928Y-63158333D01*
X104926309Y-63253571D01*
X104926309Y-63777380D01*
X104926309Y-63253571D02*
X104878690Y-63158333D01*
X104783452Y-63110714D01*
X104640595Y-63110714D01*
X104545357Y-63158333D01*
X104497738Y-63253571D01*
X104497738Y-63777380D01*
X104021547Y-63682142D02*
X103973928Y-63729761D01*
X104021547Y-63777380D01*
X104069166Y-63729761D01*
X104021547Y-63682142D01*
X104021547Y-63777380D01*
D11*
X109512857Y-53678571D02*
X109512857Y-52178571D01*
X108941428Y-52178571D01*
X108798571Y-52250000D01*
X108727142Y-52321428D01*
X108655714Y-52464285D01*
X108655714Y-52678571D01*
X108727142Y-52821428D01*
X108798571Y-52892857D01*
X108941428Y-52964285D01*
X109512857Y-52964285D01*
X108155714Y-52178571D02*
X107798571Y-53678571D01*
X107512857Y-52607142D01*
X107227142Y-53678571D01*
X106870000Y-52178571D01*
X106298571Y-53678571D02*
X106298571Y-52178571D01*
X105798571Y-53250000D01*
X105298571Y-52178571D01*
X105298571Y-53678571D01*
X103441428Y-53678571D02*
X103441428Y-52178571D01*
X103441428Y-52892857D02*
X102584285Y-52892857D01*
X102584285Y-53678571D02*
X102584285Y-52178571D01*
X101870000Y-53107142D02*
X100727142Y-53107142D01*
X99512857Y-52892857D02*
X99298571Y-52964285D01*
X99227142Y-53035714D01*
X99155714Y-53178571D01*
X99155714Y-53392857D01*
X99227142Y-53535714D01*
X99298571Y-53607142D01*
X99441428Y-53678571D01*
X100012857Y-53678571D01*
X100012857Y-52178571D01*
X99512857Y-52178571D01*
X99370000Y-52250000D01*
X99298571Y-52321428D01*
X99227142Y-52464285D01*
X99227142Y-52607142D01*
X99298571Y-52750000D01*
X99370000Y-52821428D01*
X99512857Y-52892857D01*
X100012857Y-52892857D01*
X98512857Y-53678571D02*
X98512857Y-52678571D01*
X98512857Y-52964285D02*
X98441428Y-52821428D01*
X98370000Y-52750000D01*
X98227142Y-52678571D01*
X98084285Y-52678571D01*
X97584285Y-53678571D02*
X97584285Y-52678571D01*
X97584285Y-52178571D02*
X97655714Y-52250000D01*
X97584285Y-52321428D01*
X97512857Y-52250000D01*
X97584285Y-52178571D01*
X97584285Y-52321428D01*
X96227142Y-53678571D02*
X96227142Y-52178571D01*
X96227142Y-53607142D02*
X96370000Y-53678571D01*
X96655714Y-53678571D01*
X96798571Y-53607142D01*
X96870000Y-53535714D01*
X96941428Y-53392857D01*
X96941428Y-52964285D01*
X96870000Y-52821428D01*
X96798571Y-52750000D01*
X96655714Y-52678571D01*
X96370000Y-52678571D01*
X96227142Y-52750000D01*
X94870000Y-52678571D02*
X94870000Y-53892857D01*
X94941428Y-54035714D01*
X95012857Y-54107142D01*
X95155714Y-54178571D01*
X95370000Y-54178571D01*
X95512857Y-54107142D01*
X94870000Y-53607142D02*
X95012857Y-53678571D01*
X95298571Y-53678571D01*
X95441428Y-53607142D01*
X95512857Y-53535714D01*
X95584285Y-53392857D01*
X95584285Y-52964285D01*
X95512857Y-52821428D01*
X95441428Y-52750000D01*
X95298571Y-52678571D01*
X95012857Y-52678571D01*
X94870000Y-52750000D01*
X93584285Y-53607142D02*
X93727142Y-53678571D01*
X94012857Y-53678571D01*
X94155714Y-53607142D01*
X94227142Y-53464285D01*
X94227142Y-52892857D01*
X94155714Y-52750000D01*
X94012857Y-52678571D01*
X93727142Y-52678571D01*
X93584285Y-52750000D01*
X93512857Y-52892857D01*
X93512857Y-53035714D01*
X94227142Y-53178571D01*
X91727142Y-53678571D02*
X91727142Y-52178571D01*
X91727142Y-52750000D02*
X91584285Y-52678571D01*
X91298571Y-52678571D01*
X91155714Y-52750000D01*
X91084285Y-52821428D01*
X91012857Y-52964285D01*
X91012857Y-53392857D01*
X91084285Y-53535714D01*
X91155714Y-53607142D01*
X91298571Y-53678571D01*
X91584285Y-53678571D01*
X91727142Y-53607142D01*
X90512857Y-52678571D02*
X90155714Y-53678571D01*
X89798571Y-52678571D02*
X90155714Y-53678571D01*
X90298571Y-54035714D01*
X90369999Y-54107142D01*
X90512857Y-54178571D01*
X88084285Y-53678571D02*
X88084285Y-52178571D01*
X87227142Y-53678571D01*
X87227142Y-52178571D01*
X85941428Y-53607142D02*
X86084285Y-53678571D01*
X86370000Y-53678571D01*
X86512857Y-53607142D01*
X86584285Y-53464285D01*
X86584285Y-52892857D01*
X86512857Y-52750000D01*
X86370000Y-52678571D01*
X86084285Y-52678571D01*
X85941428Y-52750000D01*
X85870000Y-52892857D01*
X85870000Y-53035714D01*
X86584285Y-53178571D01*
X84584285Y-53678571D02*
X84584285Y-52892857D01*
X84655714Y-52750000D01*
X84798571Y-52678571D01*
X85084285Y-52678571D01*
X85227142Y-52750000D01*
X84584285Y-53607142D02*
X84727142Y-53678571D01*
X85084285Y-53678571D01*
X85227142Y-53607142D01*
X85298571Y-53464285D01*
X85298571Y-53321428D01*
X85227142Y-53178571D01*
X85084285Y-53107142D01*
X84727142Y-53107142D01*
X84584285Y-53035714D01*
X83655714Y-53678571D02*
X83798571Y-53607142D01*
X83869999Y-53464285D01*
X83869999Y-52178571D01*
X81941428Y-52892857D02*
X81441428Y-52892857D01*
X81227142Y-53678571D02*
X81941428Y-53678571D01*
X81941428Y-52178571D01*
X81227142Y-52178571D01*
X80584285Y-53678571D02*
X80584285Y-52178571D01*
X79941428Y-53678571D02*
X79941428Y-52892857D01*
X80012857Y-52750000D01*
X80155714Y-52678571D01*
X80369999Y-52678571D01*
X80512857Y-52750000D01*
X80584285Y-52821428D01*
X78584285Y-53678571D02*
X78584285Y-52892857D01*
X78655714Y-52750000D01*
X78798571Y-52678571D01*
X79084285Y-52678571D01*
X79227142Y-52750000D01*
X78584285Y-53607142D02*
X78727142Y-53678571D01*
X79084285Y-53678571D01*
X79227142Y-53607142D01*
X79298571Y-53464285D01*
X79298571Y-53321428D01*
X79227142Y-53178571D01*
X79084285Y-53107142D01*
X78727142Y-53107142D01*
X78584285Y-53035714D01*
X77869999Y-53678571D02*
X77869999Y-52678571D01*
X77869999Y-52964285D02*
X77798571Y-52821428D01*
X77727142Y-52750000D01*
X77584285Y-52678571D01*
X77441428Y-52678571D01*
X76298571Y-53678571D02*
X76298571Y-52178571D01*
X76298571Y-53607142D02*
X76441428Y-53678571D01*
X76727142Y-53678571D01*
X76869999Y-53607142D01*
X76941428Y-53535714D01*
X77012857Y-53392857D01*
X77012857Y-52964285D01*
X76941428Y-52821428D01*
X76869999Y-52750000D01*
X76727142Y-52678571D01*
X76441428Y-52678571D01*
X76298571Y-52750000D01*
X75798571Y-52678571D02*
X75227142Y-52678571D01*
X75584285Y-52178571D02*
X75584285Y-53464285D01*
X75512857Y-53607142D01*
X75369999Y-53678571D01*
X75227142Y-53678571D01*
X73655714Y-52321428D02*
X73584285Y-52250000D01*
X73441428Y-52178571D01*
X73084285Y-52178571D01*
X72941428Y-52250000D01*
X72869999Y-52321428D01*
X72798571Y-52464285D01*
X72798571Y-52607142D01*
X72869999Y-52821428D01*
X73727142Y-53678571D01*
X72798571Y-53678571D01*
X71869999Y-52178571D02*
X71727142Y-52178571D01*
X71584285Y-52250000D01*
X71512857Y-52321428D01*
X71441428Y-52464285D01*
X71369999Y-52750000D01*
X71369999Y-53107142D01*
X71441428Y-53392857D01*
X71512857Y-53535714D01*
X71584285Y-53607142D01*
X71727142Y-53678571D01*
X71869999Y-53678571D01*
X72012857Y-53607142D01*
X72084285Y-53535714D01*
X72155714Y-53392857D01*
X72227142Y-53107142D01*
X72227142Y-52750000D01*
X72155714Y-52464285D01*
X72084285Y-52321428D01*
X72012857Y-52250000D01*
X71869999Y-52178571D01*
X69941428Y-53678571D02*
X70798571Y-53678571D01*
X70369999Y-53678571D02*
X70369999Y-52178571D01*
X70512857Y-52392857D01*
X70655714Y-52535714D01*
X70798571Y-52607142D01*
X69227142Y-53678571D02*
X68941428Y-53678571D01*
X68798571Y-53607142D01*
X68727142Y-53535714D01*
X68584285Y-53321428D01*
X68512857Y-53035714D01*
X68512857Y-52464285D01*
X68584285Y-52321428D01*
X68655714Y-52250000D01*
X68798571Y-52178571D01*
X69084285Y-52178571D01*
X69227142Y-52250000D01*
X69298571Y-52321428D01*
X69369999Y-52464285D01*
X69369999Y-52821428D01*
X69298571Y-52964285D01*
X69227142Y-53035714D01*
X69084285Y-53107142D01*
X68798571Y-53107142D01*
X68655714Y-53035714D01*
X68584285Y-52964285D01*
X68512857Y-52821428D01*
X67798571Y-53607142D02*
X67798571Y-53678571D01*
X67869999Y-53821428D01*
X67941428Y-53892857D01*
X66012857Y-53678571D02*
X66012857Y-52678571D01*
X66012857Y-52964285D02*
X65941428Y-52821428D01*
X65869999Y-52750000D01*
X65727142Y-52678571D01*
X65584285Y-52678571D01*
X64512857Y-53607142D02*
X64655714Y-53678571D01*
X64941428Y-53678571D01*
X65084285Y-53607142D01*
X65155714Y-53464285D01*
X65155714Y-52892857D01*
X65084285Y-52750000D01*
X64941428Y-52678571D01*
X64655714Y-52678571D01*
X64512857Y-52750000D01*
X64441428Y-52892857D01*
X64441428Y-53035714D01*
X65155714Y-53178571D01*
X63941428Y-52678571D02*
X63584285Y-53678571D01*
X63227142Y-52678571D01*
X62655714Y-53535714D02*
X62584285Y-53607142D01*
X62655714Y-53678571D01*
X62727142Y-53607142D01*
X62655714Y-53535714D01*
X62655714Y-53678571D01*
X60869999Y-52321428D02*
X60798571Y-52250000D01*
X60655714Y-52178571D01*
X60298571Y-52178571D01*
X60155714Y-52250000D01*
X60084285Y-52321428D01*
X60012857Y-52464285D01*
X60012857Y-52607142D01*
X60084285Y-52821428D01*
X60941428Y-53678571D01*
X60012857Y-53678571D01*
M02*
